<?xml version="1.0" encoding="UTF-8" standalone="no"?>
<svg
   xmlns:dc="http://purl.org/dc/elements/1.1/"
   xmlns:cc="http://creativecommons.org/ns#"
   xmlns:rdf="http://www.w3.org/1999/02/22-rdf-syntax-ns#"
   xmlns:svg="http://www.w3.org/2000/svg"
   xmlns="http://www.w3.org/2000/svg"
   xmlns:sodipodi="http://sodipodi.sourceforge.net/DTD/sodipodi-0.dtd"
   xmlns:inkscape="http://www.inkscape.org/namespaces/inkscape"
   version="1.0"
   width="960.000000pt"
   height="665.000000pt"
   viewBox="0 0 960.000000 665.000000"
   preserveAspectRatio="xMidYMid meet"
   id="svg8"
   sodipodi:docname="hex.svg"
   inkscape:version="0.92.3 (2405546, 2018-03-11)">
  <defs
     id="defs12" />
  <sodipodi:namedview
     pagecolor="#ffffff"
     bordercolor="#666666"
     borderopacity="1"
     objecttolerance="10"
     gridtolerance="10"
     guidetolerance="10"
     inkscape:pageopacity="0"
     inkscape:pageshadow="2"
     inkscape:window-width="1920"
     inkscape:window-height="1001"
     id="namedview10"
     showgrid="false"
     inkscape:zoom="0.74909125"
     inkscape:cx="568.55316"
     inkscape:cy="361.88822"
     inkscape:window-x="-9"
     inkscape:window-y="-9"
     inkscape:window-maximized="1"
     inkscape:current-layer="svg8" />
  <metadata
     id="metadata2">
Created by potrace 1.15, written by Peter Selinger 2001-2017
<rdf:RDF>
  <cc:Work
     rdf:about="">
    <dc:format>image/svg+xml</dc:format>
    <dc:type
       rdf:resource="http://purl.org/dc/dcmitype/StillImage" />
  </cc:Work>
</rdf:RDF>
</metadata>
  <g
     transform="translate(0.000000,665.000000) scale(0.100000,-0.100000)"
     id="g6"
     stroke="none"
     fill="#000000"
     style="fill:#ececec">
    <path
       d="M4860 6630 c-13 -25 -13 -33 2 -24 7 4 8 3 4 -5 -4 -6 -11 -9 -16 -6 -4 3 -22 -20 -39 -50 -34 -59 -37 -70 -19 -59 7 4 8 3 4 -5 -4 -6 -11 -9 -16 -6 -5 3 -16 -8 -25 -24 -18 -36 -19 -45 -3 -35 7 4 8 3 4 -5 -4 -6 -11 -9 -16 -6 -5 3 -14 -3 -19 -14 -14 -26 -14 -34 1 -25 7 4 8 3 4 -5 -4 -6 -11 -9 -16 -6 -5 3 -16 -8 -25 -24 -18 -36 -19 -45 -2 -35 8 5 8 2 -2 -9 -12 -15 -40 -17 -246 -17 -203 0 -234 -2 -239 -16 -9 -22 -8 -26 6 -18 7 4 8 3 4 -5 -4 -6 -11 -9 -16 -6 -4 3 -22 -20 -39 -50 -34 -59 -37 -70 -19 -59 7 4 8 3 4 -5 -4 -6 -11 -9 -16 -6 -4 3 -22 -20 -39 -50 -34 -59 -37 -70 -19 -59 7 4 8 3 4 -5 -4 -6 -11 -9 -16 -6 -5 3 -16 -8 -25 -24 -19 -38 -19 -50 1 -25 14 18 15 18 4 -4 -6 -12 -15 -20 -20 -17 -5 3 -11 1 -15 -5 -4 -6 -86 -10 -220 -10 -118 0 -216 -3 -218 -7 -3 -5 98 -6 223 -3 126 3 226 2 222 -2 -4 -4 -110 -8 -235 -10 -189 -2 -229 -6 -237 -18 -13 -21 -12 -33 2 -24 7 4 8 3 4 -5 -4 -6 -11 -9 -16 -6 -5 3 -14 -3 -19 -14 -14 -26 -14 -34 1 -25 7 4 8 3 4 -5 -4 -6 -11 -9 -16 -6 -5 3 -16 -8 -25 -24 -18 -36 -19 -45 -3 -35 7 4 8 3 4 -5 -4 -6 -11 -9 -16 -6 -12 8 -43 -53 -34 -67 4 -7 3 -8 -4 -4 -6 3 -16 -2 -21 -13 -14 -26 -14 -34 1 -25 7 4 8 3 4 -5 -4 -6 -11 -9 -16 -6 -5 3 -18 -12 -30 -35 l-20 -40 -204 0 -203 0 -11 26 c-7 14 -16 23 -21 19 -5 -3 -13 0 -17 6 -4 8 -3 9 4 5 16 -10 15 -1 -3 35 -9 16 -20 27 -25 24 -5 -3 -12 0 -16 6 -4 8 -3 9 4 5 16 -10 15 -1 -3 35 -9 16 -20 27 -25 24 -5 -3 -12 0 -16 6 -4 8 -3 9 4 5 16 -10 15 -1 -3 35 -9 16 -20 27 -25 24 -5 -3 -12 0 -16 6 -4 8 -3 9 4 5 16 -10 15 -1 -3 35 -9 16 -20 27 -25 24 -5 -3 -12 0 -16 6 -4 8 -3 9 4 5 21 -13 13 10 -10 30 -13 10 -17 12 -11 4 10 -13 4 -15 -45 -12 -31 2 -135 6 -231 10 -171 7 -174 7 -189 32 l-14 25 18 -23 c19 -22 23 -22 199 -19 l180 2 -180 3 -180 2 -98 174 c-54 96 -106 181 -116 190 -14 13 -33 16 -82 13 l-64 -3 66 -2 c50 -2 70 -6 80 -19 12 -16 12 -17 -1 -7 -16 12 -433 27 -481 17 -28 -5 -54 -46 -43 -65 4 -7 2 -8 -4 -4 -6 3 -16 -2 -21 -13 -14 -26 -14 -34 1 -25 7 4 8 3 4 -5 -4 -6 -11 -9 -16 -6 -12 8 -43 -53 -34 -67 4 -7 3 -8 -4 -4 -6 3 -16 -2 -21 -13 -14 -26 -14 -34 1 -25 7 4 8 3 4 -5 -4 -6 -11 -9 -16 -6 -4 3 -22 -20 -39 -50 -34 -59 -37 -70 -19 -59 6 4 8 3 4 -4 -4 -7 -82 -11 -233 -12 -125 0 -231 -4 -235 -8 -4 -4 93 -7 215 -6 l222 0 -230 -6 c-126 -3 -231 -7 -232 -8 -9 -7 -1 -22 9 -16 7 4 8 3 4 -5 -4 -6 -11 -9 -16 -6 -4 3 -22 -20 -39 -50 -34 -59 -37 -70 -19 -59 7 4 8 3 4 -5 -4 -6 -11 -9 -16 -6 -5 3 -16 -8 -25 -24 -18 -36 -19 -45 -3 -35 7 4 8 3 4 -5 -4 -6 -11 -9 -16 -6 -5 3 -14 -3 -19 -14 -14 -26 -14 -34 1 -25 7 4 8 3 4 -5 -4 -6 -11 -9 -16 -6 -5 3 -16 -8 -25 -24 -18 -36 -19 -45 -3 -35 7 4 8 3 4 -5 -4 -6 -11 -9 -16 -6 -5 3 -14 -3 -19 -14 -14 -26 -14 -34 2 -25 7 4 9 3 4 -2 -5 -5 -14 -9 -20 -9 -7 0 -12 -7 -12 -15 0 -8 5 -15 12 -15 6 0 15 -4 20 -9 5 -5 2 -6 -6 -1 -9 5 -12 3 -9 -6 3 -8 11 -13 17 -11 7 1 10 -2 6 -7 -9 -15 24 -73 37 -65 7 4 8 3 4 -4 -10 -16 22 -74 36 -66 7 4 8 3 4 -4 -10 -16 22 -74 36 -66 7 4 8 3 4 -4 -10 -16 22 -74 36 -66 7 4 8 3 4 -4 -8 -13 8 -47 37 -80 20 -22 25 -22 237 -22 l217 0 11 -26 c7 -14 16 -23 21 -19 5 3 13 0 17 -6 4 -8 3 -9 -4 -5 -16 10 -15 1 3 -35 9 -16 20 -27 25 -24 5 3 12 0 16 -6 4 -8 3 -9 -4 -5 -16 10 -15 1 3 -35 9 -16 20 -27 25 -24 5 3 12 0 16 -6 4 -8 3 -9 -4 -5 -16 10 -15 1 3 -35 9 -16 20 -27 25 -24 5 3 12 0 16 -6 4 -8 3 -9 -4 -5 -16 10 -15 1 3 -35 9 -16 20 -27 25 -24 5 3 12 0 16 -6 4 -7 3 -9 -3 -6 -6 4 -10 -4 -10 -18 0 -14 4 -22 10 -18 6 3 7 1 3 -6 -4 -6 -11 -9 -16 -6 -4 3 -22 -20 -39 -50 -34 -59 -37 -70 -19 -59 7 4 8 3 4 -5 -4 -6 -11 -9 -16 -6 -5 3 -16 -8 -25 -24 -18 -36 -19 -45 -3 -35 7 4 8 3 4 -5 -4 -6 -11 -9 -16 -6 -5 3 -14 -3 -19 -14 -14 -26 -14 -34 1 -25 7 4 8 3 4 -5 -4 -6 -11 -9 -16 -6 -5 3 -16 -8 -25 -24 -18 -36 -19 -44 -2 -35 7 4 9 3 4 -2 -5 -5 -12 -9 -15 -10 -4 0 -14 -4 -22 -7 -8 -4 -107 -8 -220 -10 l-205 -3 222 1 c121 0 219 -3 216 -7 -2 -5 -107 -8 -233 -8 -199 0 -229 -2 -234 -16 -9 -22 -8 -26 6 -18 7 4 8 3 4 -5 -4 -6 -11 -9 -16 -6 -4 3 -22 -20 -39 -50 -34 -59 -37 -70 -19 -59 7 4 8 3 4 -5 -4 -6 -11 -9 -16 -6 -5 3 -16 -8 -25 -24 -18 -36 -19 -45 -3 -35 7 4 8 3 4 -5 -4 -6 -11 -9 -16 -6 -5 3 -14 -3 -19 -14 -14 -26 -14 -34 1 -25 7 4 8 3 4 -5 -4 -6 -11 -9 -16 -6 -5 3 -16 -8 -25 -24 -18 -36 -19 -44 -2 -35 7 4 9 3 4 -2 -5 -5 -12 -9 -15 -10 -4 0 -14 -4 -22 -7 -8 -4 -94 -8 -190 -10 l-175 -3 192 1 c105 0 189 -3 186 -7 -2 -5 -110 -8 -239 -8 -158 0 -234 -3 -234 -11 0 -5 5 -7 12 -3 7 4 8 3 4 -5 -4 -6 -11 -9 -16 -6 -4 3 -22 -20 -39 -50 -34 -59 -37 -70 -19 -59 7 4 8 3 4 -5 -4 -6 -11 -9 -16 -6 -4 3 -22 -20 -39 -50 -34 -59 -37 -70 -19 -59 7 4 8 3 4 -5 -4 -6 -11 -9 -16 -6 -14 9 -57 -79 -58 -119 -1 -21 6 -50 14 -64 15 -25 15 -25 0 -8 -34 41 -13 -2 80 -165 53 -93 100 -166 104 -164 5 3 12 0 16 -6 4 -8 3 -9 -4 -5 -7 4 -12 2 -12 -3 0 -8 76 -11 234 -11 129 0 237 -3 239 -7 3 -5 -97 -8 -221 -8 l-227 1 217 -3 c206 -3 218 -4 228 -23 6 -12 15 -18 20 -15 5 3 12 0 16 -6 4 -8 3 -9 -4 -5 -15 9 -15 1 -1 -25 5 -11 15 -16 21 -13 7 4 8 3 4 -4 -10 -16 22 -74 36 -66 7 4 8 3 4 -4 -10 -16 22 -74 36 -66 7 4 8 3 4 -4 -10 -16 22 -74 36 -66 7 4 8 3 4 -4 -4 -6 -2 -21 4 -32 9 -17 7 -29 -14 -65 -29 -48 -32 -60 -14 -49 7 4 8 3 4 -5 -4 -6 -11 -9 -16 -6 -4 3 -22 -20 -39 -50 -34 -59 -37 -70 -19 -59 7 4 8 3 4 -5 -4 -6 -11 -9 -16 -6 -5 3 -16 -8 -25 -24 -18 -36 -19 -45 -3 -35 7 4 8 3 4 -5 -4 -6 -11 -9 -16 -6 -5 3 -14 -3 -19 -14 -14 -26 -14 -34 1 -25 7 4 8 3 4 -5 -4 -6 -12 -9 -17 -6 -5 4 -14 -5 -20 -19 -11 -23 -2 -42 91 -205 56 -100 106 -179 110 -176 5 3 12 0 16 -6 4 -8 3 -9 -4 -5 -14 9 -15 -3 -2 -24 8 -12 51 -16 247 -21 l238 -5 -232 0 c-128 1 -229 -2 -225 -6 4 -4 110 -8 235 -8 151 -1 229 -5 233 -12 4 -7 2 -8 -4 -4 -15 9 -15 1 -1 -25 5 -11 15 -16 21 -13 7 4 8 3 4 -4 -10 -16 22 -74 36 -66 7 4 8 3 4 -4 -10 -16 22 -74 36 -66 7 4 8 3 4 -4 -10 -16 22 -74 36 -66 7 4 8 3 4 -4 -9 -15 22 -74 35 -66 6 3 1 -13 -11 -35 -11 -23 -18 -47 -14 -53 4 -7 3 -8 -4 -4 -6 3 -16 -2 -21 -13 -14 -26 -14 -34 1 -25 7 4 8 3 4 -5 -4 -6 -11 -9 -16 -6 -4 3 -22 -20 -39 -50 -34 -59 -37 -70 -19 -59 7 4 8 3 4 -5 -4 -6 -11 -9 -16 -6 -5 3 -27 -29 -50 -70 l-42 -76 102 -179 c56 -99 106 -178 110 -175 5 3 12 0 16 -6 4 -8 3 -9 -4 -5 -14 9 -15 -3 -2 -24 8 -12 51 -16 247 -21 l238 -5 -232 0 c-128 1 -229 -2 -225 -6 4 -4 110 -8 235 -8 151 -1 229 -5 233 -12 4 -7 2 -8 -4 -4 -15 9 -15 1 -1 -25 5 -11 15 -16 21 -13 7 4 8 3 4 -4 -10 -16 22 -74 36 -66 7 4 8 3 4 -4 -10 -16 22 -74 36 -66 7 4 8 3 4 -5 -7 -10 36 -96 72 -146 l14 -20 -6 20 c-5 15 -4 17 4 9 6 -6 13 -20 14 -30 3 -18 16 -19 242 -19 l239 -1 -240 6 -240 6 238 3 c130 2 242 4 248 5 10 1 38 43 39 59 0 5 -5 5 -12 1 -7 -4 -8 -3 -4 5 4 6 11 9 16 6 12 -8 43 53 34 67 -4 7 -3 8 4 4 6 -3 16 2 21 13 14 26 14 34 -1 25 -7 -4 -8 -3 -4 5 4 6 11 9 16 6 12 -8 43 53 34 67 -4 7 -3 8 4 4 6 -3 16 2 21 13 14 26 14 34 -1 25 -7 -4 -8 -3 -4 5 4 6 11 9 16 6 5 -3 16 8 25 25 l16 30 199 0 c124 0 201 -4 205 -10 4 -6 10 -8 15 -5 5 3 12 0 16 -6 4 -8 3 -9 -4 -5 -16 10 -15 1 3 -35 9 -16 20 -27 25 -24 5 3 12 0 16 -6 4 -8 3 -9 -4 -5 -16 10 -15 1 3 -35 9 -16 20 -27 25 -24 5 3 12 0 16 -6 4 -8 3 -9 -4 -5 -15 9 -15 1 -1 -25 5 -11 15 -16 21 -13 7 4 8 3 4 -4 -9 -15 22 -75 34 -67 6 3 8 0 5 -7 -7 -18 31 -78 50 -78 8 0 14 -6 12 -12 -1 -10 48 -14 216 -16 l217 -2 31 -55 c17 -30 35 -53 39 -50 5 3 12 0 16 -6 4 -8 3 -9 -4 -5 -16 10 -15 1 3 -35 9 -16 20 -27 25 -24 5 3 12 0 16 -6 4 -8 3 -9 -4 -5 -16 10 -15 1 3 -35 9 -16 20 -27 25 -24 5 3 12 0 16 -6 4 -8 3 -9 -4 -5 -16 10 -15 1 3 -35 9 -16 20 -27 25 -24 5 3 12 0 16 -6 5 -8 3 -9 -6 -4 -10 6 -12 4 -7 -9 4 -10 7 -20 7 -22 0 -2 112 -4 248 -4 185 0 251 3 261 12 11 11 13 10 7 -2 -4 -8 2 -4 13 9 23 25 28 47 9 35 -7 -4 -8 -3 -4 5 4 6 11 9 16 6 5 -3 16 8 25 24 18 36 19 45 3 35 -7 -4 -8 -3 -4 5 4 6 11 9 16 6 12 -8 43 53 34 67 -4 7 -3 8 4 4 6 -3 16 2 21 13 14 26 14 34 -1 25 -7 -4 -8 -3 -4 5 4 6 11 9 16 6 4 -3 22 20 39 50 l31 55 219 0 220 0 20 26 c23 29 28 49 9 38 -7 -4 -8 -3 -4 5 4 6 11 9 16 6 5 -3 16 8 25 24 18 36 19 45 3 35 -7 -4 -8 -3 -4 5 4 6 11 9 16 6 5 -3 14 3 19 14 14 26 14 34 -1 25 -7 -4 -8 -3 -4 5 4 6 11 9 16 6 5 -3 16 8 25 24 18 36 19 45 3 35 -7 -4 -8 -3 -4 5 4 6 11 9 16 6 12 -8 43 53 34 67 -4 7 -3 8 4 4 6 -3 16 2 21 13 14 26 14 34 -1 25 -8 -4 -10 -3 -5 2 11 12 -2 11 235 15 l207 3 -215 6 -215 6 211 2 c188 2 213 0 225 -15 10 -11 10 -14 2 -9 -17 10 -16 1 2 -35 9 -16 20 -27 25 -24 5 3 12 0 16 -6 4 -8 3 -9 -4 -5 -16 10 -15 1 3 -35 9 -16 20 -27 25 -24 5 3 12 0 16 -6 4 -8 3 -9 -4 -5 -16 10 -15 1 3 -35 9 -16 20 -27 25 -24 5 3 12 0 16 -6 4 -8 3 -9 -4 -5 -16 10 -15 1 3 -35 9 -16 20 -27 25 -24 5 3 12 0 16 -6 4 -8 3 -9 -4 -5 -7 4 -12 4 -12 1 0 -14 30 -63 47 -76 17 -13 17 -13 3 6 -14 19 -14 20 6 2 18 -15 45 -17 237 -17 119 0 218 -3 220 -7 3 -5 -95 -8 -216 -8 l-222 1 205 -3 c113 -2 212 -6 220 -10 8 -3 18 -6 22 -5 4 1 12 -8 18 -21 11 -21 10 -21 -4 -3 -34 42 -12 -3 77 -160 l92 -163 261 -1 c230 0 263 2 268 16 9 22 8 26 -6 18 -7 -4 -8 -3 -4 5 4 6 11 9 16 6 5 -3 16 8 25 24 18 36 19 45 3 35 -7 -4 -8 -3 -4 5 4 6 11 9 16 6 12 -8 43 53 34 67 -4 7 -3 8 4 4 6 -3 16 2 21 13 14 26 14 34 -1 25 -7 -4 -8 -3 -4 5 4 6 11 9 16 6 12 -8 43 53 34 67 -4 7 -3 8 4 4 6 -3 16 2 21 13 14 26 14 34 -1 25 -6 -4 -8 -3 -4 4 4 7 82 11 233 12 195 1 230 3 245 17 20 18 25 38 6 27 -7 -4 -8 -3 -4 5 4 6 11 9 16 6 4 -3 22 20 39 50 34 59 37 70 19 59 -7 -4 -8 -3 -4 5 4 6 11 9 16 6 5 -3 16 8 25 24 18 36 19 45 3 35 -7 -4 -8 -3 -4 5 4 6 11 9 16 6 5 -3 14 3 19 14 14 26 14 34 -1 25 -7 -4 -8 -3 -4 5 4 6 11 9 16 6 5 -3 16 8 25 24 18 36 19 45 3 35 -7 -4 -8 -3 -4 5 4 6 12 9 17 6 5 -4 16 10 26 29 13 29 14 40 5 61 -7 15 -16 24 -21 20 -5 -3 -13 0 -17 6 -4 8 -3 9 4 5 15 -9 15 -1 1 25 -5 11 -15 16 -21 13 -7 -4 -8 -3 -4 4 10 16 -22 74 -36 66 -7 -4 -8 -3 -4 4 10 16 -22 74 -36 66 -7 -4 -8 -3 -4 4 9 15 -22 75 -34 67 -6 -3 -8 0 -5 7 3 7 -7 31 -21 53 -14 22 -23 31 -19 20 5 -15 3 -17 -5 -9 -6 6 -13 20 -14 30 -3 18 -16 19 -222 22 -182 2 -220 5 -227 17 -4 9 -12 13 -17 10 -5 -3 -12 0 -16 6 -4 8 -3 9 4 5 16 -10 15 -1 -3 35 -9 16 -20 27 -25 24 -5 -3 -12 0 -16 6 -4 8 -3 9 4 5 16 -10 15 -1 -3 35 -9 16 -20 27 -25 24 -5 -3 -12 0 -16 6 -4 8 -3 9 4 5 16 -10 15 -1 -3 35 -9 16 -20 27 -25 24 -5 -3 -12 0 -16 6 -4 8 -3 9 4 5 16 -10 15 -1 -3 35 -9 16 -20 27 -25 24 -5 -3 -12 0 -16 6 -5 8 -3 9 6 4 10 -6 11 -4 5 11 -4 10 -8 26 -8 34 0 8 4 24 8 34 6 15 5 17 -5 11 -9 -5 -11 -4 -6 4 4 6 11 9 16 6 4 -3 22 20 39 50 34 59 37 70 19 59 -7 -4 -8 -3 -4 5 4 6 11 9 16 6 4 -3 22 20 39 50 34 59 37 70 19 59 -7 -4 -8 -3 -4 5 4 6 11 9 16 6 5 -3 14 3 19 14 14 25 14 34 1 26 -6 -4 -7 1 -3 11 4 11 8 13 11 6 3 -9 61 -12 222 -12 l218 0 26 31 c27 32 35 56 14 43 -7 -4 -8 -3 -4 5 4 6 11 9 16 6 12 -8 43 53 34 67 -4 7 -3 8 4 4 6 -3 16 2 21 13 14 26 14 34 -1 25 -7 -4 -8 -3 -4 5 4 6 11 9 16 6 12 -8 43 53 34 67 -4 7 -3 8 4 4 6 -3 16 2 21 13 14 26 14 34 -1 25 -7 -4 -8 -3 -4 5 4 6 12 9 17 6 5 -4 16 10 26 29 l17 36 219 2 c207 3 220 4 223 22 1 10 8 24 14 30 8 8 9 6 5 -9 -4 -12 1 -8 14 10 23 33 27 50 9 39 -7 -4 -8 -3 -4 5 4 6 11 9 16 6 4 -3 22 20 39 50 34 59 37 70 19 59 -7 -4 -8 -3 -4 5 4 6 11 9 16 6 4 -3 22 20 39 50 34 59 37 70 19 59 -7 -4 -8 -3 -4 5 4 6 12 9 17 6 5 -4 14 5 21 19 l11 26 221 2 221 2 -230 6 -230 6 237 2 c232 2 237 2 252 24 19 26 21 42 4 32 -7 -4 -8 -3 -4 5 4 6 11 9 16 6 12 -8 43 53 34 67 -4 7 -3 8 4 4 6 -3 16 2 21 13 14 26 14 34 -1 25 -7 -4 -8 -3 -4 5 4 6 11 9 16 6 4 -3 22 20 39 50 34 59 37 70 19 59 -7 -4 -8 -3 -4 5 4 6 11 9 16 6 5 -3 16 8 25 24 20 39 19 50 -1 25 -15 -17 -15 -17 0 8 19 33 17 114 -3 110 -7 -1 -10 2 -6 8 7 12 -165 318 -193 343 -17 16 -43 17 -238 14 l-219 -2 221 -3 c198 -2 223 -4 235 -19 11 -15 11 -16 -1 -5 -10 9 -71 12 -231 12 -191 0 -218 2 -230 17 -10 11 -10 14 -1 9 16 -10 15 -1 -3 35 -9 16 -20 27 -25 24 -5 -3 -12 0 -16 6 -4 8 -3 9 4 5 16 -10 15 -1 -3 35 -9 16 -20 27 -25 24 -5 -3 -12 0 -16 6 -4 8 -3 9 4 5 16 -10 15 -1 -3 35 -9 16 -20 27 -25 24 -5 -3 -12 0 -16 6 -4 8 -3 9 4 5 16 -10 15 -1 -3 35 -9 16 -20 27 -25 24 -5 -3 -12 0 -16 6 -4 8 -3 9 4 5 27 -16 2 36 -36 77 l-26 27 -227 0 c-125 0 -230 -3 -232 -7 -3 -5 99 -7 227 -5 231 3 232 3 252 -20 l19 -23 -21 18 c-18 15 -45 17 -240 17 -219 0 -264 -4 -264 -22 0 -5 5 -6 12 -2 7 4 8 3 4 -5 -4 -6 -11 -9 -16 -6 -12 8 -43 -53 -34 -67 4 -7 3 -8 -4 -4 -6 3 -16 -2 -21 -13 -14 -26 -14 -34 1 -25 7 4 8 3 4 -5 -4 -6 -11 -9 -16 -6 -4 3 -22 -20 -39 -50 -34 -59 -37 -70 -19 -59 7 4 8 3 4 -5 -4 -6 -11 -9 -16 -6 -5 3 -21 -17 -36 -45 l-27 -50 -206 0 -206 0 -99 175 c-54 96 -102 173 -106 170 -5 -3 -12 0 -16 6 -4 8 -3 9 4 5 7 -4 12 -2 12 3 0 8 -76 11 -234 11 -129 0 -237 3 -239 8 -3 4 97 7 221 7 l227 -1 -217 3 c-206 3 -218 4 -228 23 -6 12 -15 18 -20 15 -5 -3 -12 0 -16 6 -4 8 -3 9 4 5 16 -10 15 -1 -3 35 -9 16 -20 27 -25 24 -5 -3 -12 0 -16 6 -4 8 -3 9 4 5 16 -10 15 -1 -3 35 -9 16 -20 27 -25 24 -5 -3 -12 0 -16 6 -4 8 -3 9 4 5 15 -9 15 -1 1 25 -5 11 -15 16 -21 13 -7 -4 -8 -3 -4 4 8 13 -21 75 -32 68 -4 -2 -9 4 -10 15 -1 10 -2 25 -3 32 -1 6 2 21 7 31 5 15 4 17 -6 11 -9 -5 -11 -4 -6 4 4 6 11 9 16 6 5 -3 16 8 25 24 18 36 19 45 3 35 -7 -4 -8 -3 -4 5 4 6 11 9 16 6 12 -8 43 53 34 67 -4 7 -3 8 4 4 6 -3 16 2 21 13 14 26 14 34 -1 25 -7 -4 -8 -3 -4 5 4 6 11 9 16 6 12 -8 43 53 34 67 -4 7 -3 8 4 4 6 -3 16 2 22 14 10 19 22 20 238 23 l227 3 -237 -1 c-130 0 -234 3 -231 8 2 4 114 7 249 7 165 0 244 3 244 11 0 5 -5 7 -12 3 -7 -4 -8 -3 -4 5 4 6 11 9 16 6 5 -3 16 8 25 24 18 36 19 45 3 35 -7 -4 -8 -3 -4 5 4 6 11 9 16 6 12 -8 43 53 34 67 -4 7 -3 8 4 4 6 -3 16 2 21 13 14 26 14 34 -1 25 -7 -4 -8 -3 -4 5 4 6 11 9 16 6 12 -8 43 53 34 67 -4 7 -3 8 4 4 6 -3 16 2 21 13 14 26 14 34 -1 25 -7 -4 -8 -3 -4 5 4 6 11 9 16 6 12 -7 53 72 45 86 -4 5 -10 7 -15 4 -5 -3 -12 0 -16 6 -4 8 -3 9 4 5 16 -10 15 -1 -3 35 -9 16 -20 27 -25 24 -5 -3 -12 0 -16 6 -4 8 -3 9 4 5 16 -10 15 -1 -3 35 -9 16 -20 27 -25 24 -5 -3 -12 0 -16 6 -4 8 -3 9 4 5 16 -10 15 -1 -3 35 -9 16 -20 27 -25 24 -5 -3 -12 0 -16 6 -4 8 -3 9 4 5 16 -10 15 -1 -3 35 -9 16 -20 27 -25 24 -5 -3 -12 0 -16 6 -4 8 -3 9 4 5 16 -10 15 -1 -3 35 -9 16 -20 27 -25 24 -5 -3 -12 0 -16 6 -4 8 -3 9 4 5 19 -12 14 9 -7 28 -15 13 -33 16 -82 13 l-64 -3 67 -2 c37 -1 69 -5 71 -9 3 -5 -95 -5 -216 0 -224 7 -287 4 -287 -14 0 -6 5 -7 12 -3 7 4 8 3 4 -5 -4 -6 -11 -9 -16 -6 -4 3 -22 -20 -39 -50 -34 -59 -37 -70 -19 -59 7 4 8 3 4 -5 -4 -6 -11 -9 -16 -6 -5 3 -16 -8 -25 -24 -18 -36 -19 -45 -3 -35 7 4 8 3 4 -5 -4 -6 -11 -9 -16 -6 -5 3 -14 -3 -19 -14 -14 -26 -14 -34 1 -25 7 4 8 3 4 -5 -4 -6 -11 -9 -16 -6 -5 3 -16 -8 -25 -24 -18 -36 -19 -44 -2 -35 7 4 9 3 4 -2 -5 -5 -12 -9 -16 -9 -4 0 -15 -8 -25 -17 -10 -10 -14 -18 -9 -18 5 0 15 6 22 13 10 10 11 8 5 -7 -7 -18 -16 -19 -157 -12 -83 3 -184 7 -226 8 -42 1 7 5 109 8 l185 6 -175 2 -176 2 -103 180 c-62 109 -107 178 -113 174 -7 -4 -8 -2 -4 5 4 6 11 9 16 6 5 -3 14 3 19 14 14 26 14 34 -1 25 -7 -4 -8 -3 -4 5 4 6 11 9 16 6 4 -3 22 20 39 50 34 59 37 70 19 59 -7 -4 -8 -3 -4 5 4 6 11 9 16 6 5 -3 16 8 25 24 18 36 19 45 3 35 -7 -4 -8 -3 -4 5 4 6 11 9 16 6 5 -3 14 3 19 14 14 26 14 34 -1 25 -7 -4 -8 -3 -4 5 4 6 12 9 17 6 5 -3 19 14 31 39 18 38 20 49 10 71 -7 14 -16 24 -21 20 -5 -3 -13 0 -17 6 -4 8 -3 9 4 5 16 -10 15 -1 -3 35 -9 16 -20 27 -25 24 -5 -3 -12 0 -16 6 -4 8 -3 9 4 5 16 -10 15 -1 -3 35 -9 16 -20 27 -25 24 -5 -3 -12 0 -16 6 -4 8 -3 9 4 5 16 -10 15 -1 -3 35 -9 16 -20 27 -25 24 -5 -3 -12 0 -16 6 -4 8 -3 9 4 5 16 -10 15 -1 -3 35 -9 16 -20 27 -25 24 -5 -3 -12 0 -16 6 -4 8 -3 9 4 5 16 -9 15 3 -3 34 -7 14 -19 25 -27 25 -7 0 -13 7 -13 15 0 13 -32 15 -221 18 l-220 2 -103 180 -102 179 -259 0 c-245 0 -260 -1 -270 -19z m549 -160 c40 -71 77 -128 81 -125 5 3 12 0 16 -6 4 -8 3 -9 -4 -5 -16 10 -15 1 3 -35 9 -16 20 -27 25 -24 5 3 12 0 16 -6 4 -8 3 -9 -4 -5 -8 5 -12 -1 -12 -14 0 -13 4 -19 12 -14 7 4 8 3 4 -5 -4 -6 -11 -9 -16 -6 -5 3 -14 -3 -19 -14 -14 -26 -14 -34 1 -25 7 4 8 3 4 -5 -4 -6 -11 -9 -16 -6 -5 3 -16 -8 -25 -24 -18 -36 -19 -45 -3 -35 7 4 8 3 4 -5 -4 -6 -11 -9 -16 -6 -12 8 -43 -53 -34 -67 4 -7 3 -8 -4 -4 -6 3 -16 -2 -21 -13 -14 -26 -14 -34 1 -25 7 4 8 3 4 -5 -4 -6 -11 -9 -16 -6 -12 8 -43 -53 -34 -67 4 -6 3 -8 -4 -4 -6 3 -13 2 -17 -4 -4 -6 -82 -10 -209 -10 l-203 0 -11 26 c-7 14 -16 23 -21 19 -5 -3 -13 0 -17 6 -4 8 -3 9 4 5 16 -10 15 -1 -3 35 -9 16 -20 27 -25 24 -5 -3 -12 0 -16 6 -4 8 -3 9 4 5 16 -10 15 -1 -3 35 -9 16 -20 27 -25 24 -5 -3 -12 0 -16 6 -4 8 -3 9 4 5 16 -10 15 -1 -3 35 -9 16 -20 27 -25 24 -5 -3 -12 0 -16 6 -4 8 -3 9 4 5 15 -9 15 -1 1 25 -5 11 -14 17 -19 14 -6 -4 -7 1 -3 11 4 11 3 15 -5 10 -6 -3 -14 -1 -18 5 -4 8 -3 9 4 5 7 -4 12 -1 12 8 0 8 3 22 7 32 5 13 3 15 -7 9 -9 -5 -11 -4 -6 4 4 6 11 9 16 6 5 -3 16 8 25 24 18 36 19 45 3 35 -7 -4 -8 -3 -4 5 4 6 11 9 16 6 12 -8 43 53 34 67 -4 7 -3 8 4 4 6 -3 16 2 21 13 14 26 14 34 -1 25 -7 -4 -8 -3 -4 5 4 6 11 9 16 6 5 -3 23 22 42 55 l33 60 205 0 205 0 74 -130z m-3409 -250 c-14 -9 -13 -11 9 -14 5 0 13 -5 18 -10 5 -5 3 -6 -4 -2 -17 9 -16 1 2 -35 9 -16 20 -27 25 -24 5 3 12 0 16 -6 4 -8 3 -9 -4 -5 -16 10 -15 1 3 -35 9 -16 20 -27 25 -24 5 3 12 0 16 -6 4 -8 3 -9 -4 -5 -16 10 -15 1 3 -35 9 -16 20 -27 25 -24 5 3 12 0 16 -6 4 -8 3 -9 -4 -5 -16 10 -15 1 3 -35 9 -16 20 -27 25 -24 5 3 12 0 16 -6 4 -8 3 -9 -4 -5 -16 10 -15 1 3 -35 9 -17 21 -27 27 -23 7 4 8 3 4 -5 -4 -6 -11 -9 -16 -6 -12 8 -43 -53 -34 -67 4 -7 3 -8 -4 -4 -6 3 -16 -2 -21 -13 -14 -26 -14 -34 1 -25 7 4 8 3 4 -5 -4 -6 -11 -9 -16 -6 -4 3 -22 -20 -39 -50 -34 -59 -37 -70 -19 -59 7 4 8 3 4 -5 -4 -6 -11 -9 -16 -6 -5 3 -21 -17 -36 -45 l-27 -50 -203 0 c-127 0 -205 4 -209 10 -4 6 -10 8 -15 5 -5 -3 -12 0 -16 6 -4 8 -3 9 4 5 16 -10 15 -1 -3 35 -9 16 -20 27 -25 24 -5 -3 -12 0 -16 6 -4 8 -3 9 4 5 16 -10 15 -1 -3 35 -9 16 -20 27 -25 24 -5 -3 -12 0 -16 6 -4 8 -3 9 4 5 16 -10 15 -1 -3 35 -9 16 -20 27 -25 24 -5 -3 -12 0 -16 6 -4 8 -3 9 4 5 16 -10 15 -1 -3 35 -9 16 -20 27 -25 24 -5 -3 -12 0 -16 6 -5 8 -3 9 6 4 10 -6 11 -4 5 11 -10 24 -10 44 0 68 6 15 5 17 -5 11 -9 -5 -11 -4 -6 4 4 6 11 9 16 6 5 -3 16 8 25 24 18 36 19 45 3 35 -7 -4 -8 -3 -4 5 4 6 11 9 16 6 12 -8 43 53 34 67 -4 7 -3 8 4 4 6 -3 16 2 21 13 14 26 14 34 -1 25 -7 -4 -8 -3 -4 5 4 6 11 9 16 6 12 -8 43 53 34 67 -4 7 -3 8 4 4 6 -3 16 2 22 14 10 18 22 20 193 23 l182 3 -192 -1 c-105 0 -189 3 -186 8 2 4 102 7 221 7 144 0 212 -4 202 -10z m4013 3 c3 -5 -90 -8 -206 -8 l-212 1 195 -3 c107 -2 202 -6 210 -10 8 -3 18 -7 22 -7 3 -1 10 -5 15 -10 5 -5 3 -6 -4 -2 -16 9 -16 1 -2 -25 5 -11 15 -16 21 -13 7 4 8 3 4 -4 -10 -16 22 -74 36 -66 7 4 8 3 4 -4 -10 -16 22 -74 36 -66 6 4 8 3 4 -4 -8 -13 70 -163 80 -154 4 4 4 1 0 -6 -4 -7 -12 -9 -18 -6 -8 5 -9 1 -5 -10 4 -10 3 -15 -3 -11 -5 3 -14 -3 -19 -14 -14 -26 -14 -34 1 -25 7 4 8 3 4 -5 -4 -6 -11 -9 -16 -6 -12 8 -43 -53 -34 -67 4 -7 3 -8 -4 -4 -6 3 -16 -2 -21 -13 -14 -26 -14 -34 1 -25 7 4 8 3 4 -5 -4 -6 -11 -9 -16 -6 -4 3 -22 -20 -39 -50 -34 -59 -37 -70 -19 -59 7 4 8 3 4 -5 -4 -6 -11 -9 -16 -6 -5 3 -12 1 -15 -5 -4 -7 -81 -10 -221 -10 -124 1 -212 5 -209 10 9 15 -24 72 -37 64 -7 -4 -8 -3 -4 5 10 16 -132 263 -147 254 -6 -3 -3 4 6 18 20 27 22 43 5 33 -7 -4 -8 -3 -4 5 4 6 11 9 16 6 5 -3 14 3 19 14 14 26 14 34 -1 25 -7 -4 -8 -3 -4 5 4 6 11 9 16 6 5 -3 16 8 25 24 18 36 19 45 3 35 -7 -4 -8 -3 -4 5 4 6 11 9 16 6 5 -3 14 3 19 14 14 26 14 34 -1 25 -7 -4 -8 -3 -4 5 4 6 11 9 16 6 5 -3 16 8 25 24 18 36 19 45 3 35 -7 -4 -8 -3 -4 5 4 6 11 9 16 6 5 -3 14 3 19 14 14 26 14 34 -1 25 -7 -4 -8 -3 -4 5 4 6 12 8 18 5 7 -5 9 -2 5 8 -3 9 -3 19 0 22 9 9 421 7 426 -1z m-1290 -118 c32 -58 63 -103 67 -100 5 3 12 0 16 -6 4 -8 3 -9 -4 -5 -16 10 -15 1 3 -35 9 -16 20 -27 25 -24 5 3 12 0 16 -6 4 -8 3 -9 -4 -5 -16 10 -15 1 3 -35 12 -21 13 -34 5 -48 -13 -26 -13 -34 2 -25 7 4 8 3 4 -5 -4 -6 -11 -9 -16 -6 -4 3 -22 -20 -39 -50 -34 -59 -37 -70 -19 -59 7 4 8 3 4 -5 -4 -6 -11 -9 -16 -6 -5 3 -16 -8 -25 -24 -18 -36 -19 -45 -3 -35 7 4 8 3 4 -5 -4 -6 -11 -9 -16 -6 -5 3 -14 -3 -19 -14 -14 -26 -14 -34 1 -25 7 4 8 3 4 -5 -4 -6 -11 -9 -16 -6 -5 3 -16 -8 -25 -25 l-16 -30 -199 0 c-190 0 -200 1 -210 20 -6 11 -15 18 -20 15 -5 -3 -12 0 -16 6 -4 8 -3 9 4 5 16 -10 15 -1 -3 35 -9 16 -20 27 -25 24 -5 -3 -12 0 -16 6 -4 8 -3 9 4 5 16 -10 15 -1 -3 35 -9 16 -20 27 -25 24 -5 -3 -12 0 -16 6 -4 8 -3 9 4 5 16 -10 15 -1 -3 35 -9 16 -20 27 -25 24 -5 -3 -12 0 -16 6 -4 8 -3 9 4 5 16 -10 15 -1 -3 35 -9 16 -20 27 -25 24 -5 -3 -12 0 -16 6 -5 8 -3 9 6 4 9 -5 10 -2 5 14 -4 15 3 39 24 76 34 59 37 70 19 59 -7 -4 -8 -3 -4 5 4 6 11 9 16 6 4 -3 22 20 39 50 34 59 37 70 19 59 -7 -4 -8 -3 -4 5 4 6 11 9 16 6 5 -3 16 8 25 24 18 36 19 45 3 35 -7 -4 -8 -3 -4 5 4 6 12 9 17 6 5 -4 12 1 15 9 5 14 34 16 213 16 l206 0 58 -105z m-3349 -370 c26 -47 52 -83 56 -80 5 3 12 0 16 -6 4 -8 3 -9 -4 -5 -16 10 -15 1 3 -35 9 -16 20 -27 25 -24 5 3 12 0 16 -6 4 -8 3 -9 -4 -5 -16 10 -15 1 3 -35 9 -16 20 -27 25 -24 5 3 12 0 16 -6 4 -7 3 -10 -2 -6 -5 3 -9 -12 -9 -33 0 -21 4 -36 9 -33 5 4 6 1 2 -6 -4 -6 -11 -9 -16 -6 -5 3 -16 -8 -25 -24 -18 -36 -19 -45 -3 -35 7 4 8 3 4 -5 -4 -6 -11 -9 -16 -6 -12 8 -43 -53 -34 -67 4 -7 3 -8 -4 -4 -6 3 -16 -2 -21 -13 -14 -26 -14 -34 1 -25 7 4 8 3 4 -5 -4 -6 -11 -9 -16 -6 -12 8 -43 -53 -34 -67 4 -7 3 -8 -4 -4 -7 4 -17 -3 -24 -18 l-11 -26 -207 0 -206 0 -17 36 c-10 19 -21 33 -26 29 -5 -3 -13 0 -17 6 -4 8 -3 9 4 5 16 -10 15 -1 -3 35 -9 16 -20 27 -25 24 -5 -3 -12 0 -16 6 -4 8 -3 9 4 5 16 -10 15 -1 -3 35 -9 16 -20 27 -25 24 -5 -3 -12 0 -16 6 -4 8 -3 9 4 5 16 -10 15 -1 -3 35 -9 16 -20 27 -25 24 -5 -3 -12 0 -16 6 -4 8 -3 9 4 5 16 -10 15 -5 -6 43 -10 22 -22 38 -27 33 -5 -4 -5 -1 -1 6 4 7 11 10 16 7 12 -8 43 53 34 67 -4 7 -3 8 4 4 6 -3 16 2 21 13 14 26 14 34 -1 25 -7 -4 -8 -3 -4 5 4 6 11 9 16 6 4 -3 22 20 39 50 34 59 37 70 19 59 -7 -4 -8 -3 -4 5 4 6 11 9 16 6 5 -3 16 8 25 24 19 38 19 50 -1 25 -14 -18 -15 -18 -4 4 6 12 15 20 20 17 5 -3 11 -1 15 5 4 6 82 10 209 10 l202 0 48 -85z m1300 70 c3 -9 11 -13 17 -9 8 4 9 3 5 -5 -4 -6 30 -76 78 -161 47 -82 86 -154 86 -160 0 -6 5 -8 12 -4 7 4 8 3 4 -5 -4 -6 -11 -9 -16 -6 -5 3 -14 -3 -19 -14 -14 -26 -14 -34 1 -25 7 4 8 3 4 -5 -4 -6 -11 -9 -16 -6 -4 3 -22 -20 -39 -50 -34 -59 -37 -70 -19 -59 7 4 8 3 4 -5 -4 -6 -11 -9 -16 -6 -5 3 -16 -8 -25 -24 -18 -36 -19 -45 -3 -35 7 4 8 3 4 -5 -4 -6 -11 -9 -16 -6 -5 3 -14 -3 -19 -14 -14 -26 -14 -34 1 -25 7 4 8 3 4 -5 -4 -6 -12 -9 -17 -6 -5 4 -14 -5 -21 -19 l-11 -26 -202 0 -202 0 -11 26 c-7 15 -17 22 -24 18 -7 -4 -8 -3 -4 4 9 14 -142 284 -154 277 -5 -3 -12 0 -16 7 -4 7 -4 10 0 6 4 -3 21 18 37 49 32 61 34 67 17 57 -7 -4 -8 -3 -4 5 4 6 11 9 16 6 4 -3 22 20 39 50 34 59 37 70 19 59 -7 -4 -8 -3 -4 5 4 6 11 9 16 6 5 -3 16 8 25 24 18 36 19 45 3 35 -7 -4 -8 -3 -4 5 4 6 11 9 16 6 5 -3 14 3 19 14 14 26 14 34 -1 25 -6 -4 -8 -3 -4 4 4 7 79 11 220 12 187 1 214 -1 220 -15z m1339 -21 c10 -19 21 -33 26 -29 5 3 13 0 17 -6 4 -8 3 -9 -4 -5 -15 9 -15 1 -1 -25 5 -11 15 -16 21 -13 7 4 8 3 4 -4 -10 -16 22 -74 36 -66 7 4 8 3 4 -4 -10 -16 22 -74 36 -66 7 4 8 3 4 -4 -9 -14 22 -75 34 -67 8 5 1 -28 -16 -69 -6 -15 -4 -17 6 -11 9 5 11 4 6 -4 -4 -6 -11 -9 -16 -6 -12 8 -43 -53 -34 -67 4 -7 3 -8 -4 -4 -6 3 -16 -2 -21 -13 -14 -26 -14 -34 1 -25 7 4 8 3 4 -5 -4 -6 -11 -9 -16 -6 -4 3 -22 -20 -39 -50 -34 -59 -37 -70 -19 -59 7 4 8 3 4 -5 -4 -6 -12 -9 -17 -6 -5 4 -14 -5 -21 -20 l-11 -25 -205 2 -204 3 -99 173 c-98 170 -99 172 -84 202 18 35 19 44 3 34 -7 -4 -8 -3 -4 5 4 6 11 9 16 6 12 -8 43 53 34 67 -4 7 -3 8 4 4 6 -3 16 2 21 13 14 26 14 34 -1 25 -7 -4 -8 -3 -4 5 4 6 11 9 16 6 12 -8 43 53 34 67 -4 7 -3 8 4 4 6 -3 16 2 21 13 14 26 14 34 -1 25 -7 -4 -8 -3 -4 5 4 6 11 9 16 6 5 -3 14 4 20 15 10 19 20 20 213 20 l203 0 17 -36z m1322 26 c4 -6 11 -7 17 -4 7 4 8 2 4 -4 -10 -16 22 -74 36 -66 7 4 8 3 4 -4 -10 -16 22 -74 36 -66 7 4 8 3 4 -4 -10 -16 22 -74 36 -66 7 4 8 3 4 -4 -10 -16 22 -74 36 -66 7 4 8 3 4 -4 -4 -6 -2 -21 4 -32 8 -15 7 -27 -5 -49 -18 -36 -19 -45 -3 -35 7 4 8 3 4 -5 -4 -6 -11 -9 -16 -6 -12 8 -43 -53 -34 -67 4 -7 3 -8 -4 -4 -6 3 -16 -2 -21 -13 -14 -26 -14 -34 1 -25 7 4 8 3 4 -5 -4 -6 -11 -9 -16 -6 -12 8 -43 -53 -34 -67 4 -7 3 -8 -4 -4 -6 3 -16 -2 -21 -13 -14 -26 -14 -34 1 -25 7 4 8 3 4 -5 -4 -6 -11 -9 -16 -6 -5 3 -14 -4 -20 -15 -10 -19 -20 -20 -210 -20 -124 0 -201 4 -205 10 -4 6 -10 8 -15 5 -5 -3 -12 0 -16 6 -4 8 -3 9 4 5 15 -9 15 -1 1 25 -5 11 -15 16 -21 13 -7 -4 -8 -3 -4 4 10 16 -22 74 -36 66 -7 -4 -8 -3 -4 4 4 7 -18 57 -50 113 -50 89 -55 103 -45 125 14 31 14 37 -1 28 -7 -4 -8 -3 -4 5 4 6 11 9 16 6 12 -8 43 53 34 67 -4 7 -3 8 4 4 6 -3 16 2 21 13 14 26 14 34 -1 25 -7 -4 -8 -3 -4 5 4 6 11 9 16 6 12 -8 43 53 34 67 -4 7 -3 8 4 4 6 -3 16 2 21 13 14 26 14 34 -1 25 -7 -4 -8 -3 -4 5 4 6 12 9 17 6 5 -4 14 5 21 19 l11 26 203 0 c127 0 205 -4 209 -10z m689 -376 c6 -15 4 -15 -11 -3 -12 10 -10 1 9 -31 14 -25 40 -71 58 -103 17 -31 36 -55 40 -52 5 3 12 0 16 -6 4 -8 3 -9 -4 -5 -16 10 -15 1 3 -35 9 -16 20 -27 25 -24 5 3 12 0 16 -6 4 -8 3 -9 -4 -5 -16 10 -15 1 3 -35 9 -16 20 -27 25 -24 5 3 12 0 16 -6 4 -8 3 -9 -4 -5 -8 4 -12 0 -12 -11 0 -10 -9 -31 -20 -48 -22 -34 -26 -50 -8 -39 7 4 8 3 4 -5 -4 -6 -11 -9 -16 -6 -5 3 -16 -8 -25 -24 -18 -36 -19 -45 -3 -35 7 4 8 3 4 -5 -4 -6 -11 -9 -16 -6 -5 3 -14 -3 -19 -14 -14 -26 -14 -34 1 -25 7 4 8 3 4 -5 -4 -6 -11 -9 -16 -6 -5 3 -16 -8 -25 -24 -18 -36 -19 -45 -3 -35 7 4 8 3 4 -5 -4 -6 -11 -9 -16 -6 -5 3 -14 -3 -19 -14 -14 -26 -14 -34 1 -25 7 4 8 3 4 -5 -4 -6 -12 -9 -17 -5 -6 3 -9 -2 -7 -12 3 -18 -9 -19 -217 -19 l-220 -1 220 6 220 6 -211 2 -211 2 -11 26 c-7 14 -16 23 -21 19 -5 -3 -13 0 -17 6 -4 8 -3 9 4 5 16 -10 15 -1 -3 35 -9 16 -20 27 -25 24 -5 -3 -12 0 -16 6 -4 8 -3 9 4 5 16 -10 15 -1 -3 35 -9 16 -20 27 -25 24 -5 -3 -12 0 -16 6 -4 8 -3 9 4 5 16 -10 15 -1 -3 35 -9 16 -20 27 -25 24 -5 -3 -12 0 -16 6 -4 8 -3 9 4 5 15 -9 15 -1 1 25 -5 11 -14 17 -19 14 -6 -4 -7 1 -3 11 4 11 3 15 -5 10 -6 -3 -14 -1 -18 5 -4 8 -3 9 4 5 8 -4 12 0 12 11 0 10 9 32 20 48 22 34 26 50 8 39 -7 -4 -8 -3 -4 5 4 6 11 9 16 6 4 -3 22 20 39 50 34 59 37 70 19 59 -7 -4 -8 -3 -4 5 4 6 11 9 16 6 4 -3 22 20 39 50 34 60 37 70 19 59 -8 -4 -10 -3 -5 2 5 5 12 9 15 10 4 0 14 4 22 7 8 4 94 8 190 10 l175 3 -192 -1 c-105 0 -189 3 -186 8 2 4 100 7 218 7 188 0 214 -2 219 -16z m1350 -10 c6 -15 4 -15 -10 -3 -16 13 -16 12 -5 -9 7 -12 17 -20 23 -16 7 4 8 3 4 -4 -10 -16 22 -74 36 -66 7 4 8 3 4 -5 -4 -6 22 -62 60 -129 37 -64 67 -125 66 -135 0 -10 4 -15 10 -11 7 4 8 2 4 -5 -4 -6 -11 -9 -16 -6 -12 8 -43 -53 -34 -67 4 -7 3 -8 -4 -4 -6 3 -16 -2 -21 -13 -14 -26 -14 -34 1 -25 7 4 8 3 4 -5 -4 -6 -11 -9 -16 -6 -12 8 -43 -53 -34 -67 4 -7 3 -8 -4 -4 -6 3 -16 -2 -21 -13 -14 -26 -14 -34 1 -25 7 4 8 3 4 -5 -4 -6 -11 -9 -16 -6 -5 3 -18 -12 -30 -35 l-20 -40 -209 0 -208 0 -27 50 c-15 28 -31 48 -36 45 -5 -3 -12 0 -16 6 -4 8 -3 9 4 5 16 -10 15 -1 -3 35 -9 16 -20 27 -25 24 -5 -3 -12 0 -16 6 -4 8 -3 9 4 5 16 -10 15 -1 -3 35 -9 16 -20 27 -25 24 -5 -3 -12 0 -16 6 -4 8 -3 9 4 5 16 -10 15 -1 -3 35 -9 16 -20 27 -25 24 -5 -3 -12 0 -16 6 -5 8 -3 9 6 4 10 -6 12 -4 7 9 -4 10 -7 24 -7 32 0 9 -5 12 -12 8 -7 -4 -8 -3 -4 5 4 6 11 9 16 6 4 -3 22 20 39 50 34 59 37 70 19 59 -7 -4 -8 -3 -4 5 4 6 11 9 16 6 4 -3 22 20 39 50 34 59 37 70 19 59 -7 -4 -8 -3 -4 5 4 6 11 9 16 6 5 -3 16 8 25 24 19 38 19 50 -1 25 -14 -18 -15 -18 -4 3 6 13 14 22 18 21 4 -1 14 2 22 5 8 4 94 8 190 10 l175 3 -192 -1 c-105 0 -189 3 -186 8 2 4 100 7 218 7 188 0 214 -2 219 -16z m-5366 -20 c7 -15 17 -22 24 -18 7 4 8 3 4 -4 -10 -16 22 -74 36 -66 7 4 8 3 4 -4 -10 -16 22 -74 36 -66 7 4 8 3 4 -4 -9 -14 62 -144 74 -137 5 3 14 -3 20 -14 7 -14 7 -22 0 -26 -6 -4 -10 -3 -9 2 6 32 -4 31 -16 -2 -18 -49 -18 -48 -3 -39 7 4 8 3 4 -5 -4 -6 -11 -9 -16 -6 -4 3 -22 -20 -39 -50 -34 -59 -37 -70 -19 -59 7 4 8 3 4 -5 -4 -6 -11 -9 -16 -6 -4 3 -22 -20 -39 -50 -34 -59 -37 -70 -19 -59 7 4 8 3 4 -5 -4 -6 -12 -9 -17 -6 -5 4 -14 -5 -21 -19 l-11 -26 -208 0 c-178 0 -208 2 -213 16 -3 8 -11 12 -17 8 -8 -4 -9 -3 -5 5 4 6 -30 77 -79 163 l-87 151 16 34 c19 40 20 47 4 37 -7 -4 -8 -3 -4 5 4 6 11 9 16 6 5 -3 14 3 19 14 14 26 14 34 -1 25 -7 -4 -8 -3 -4 5 4 6 11 9 16 6 5 -3 16 8 25 24 18 36 19 45 3 35 -7 -4 -8 -3 -4 5 4 6 11 9 16 6 5 -3 14 3 19 14 14 26 14 34 -1 25 -7 -4 -8 -3 -4 5 4 6 11 9 16 6 5 -3 16 8 25 24 18 36 19 45 3 35 -7 -4 -8 -3 -4 5 4 6 11 9 16 6 5 -3 14 4 20 15 10 19 20 20 214 20 l203 0 11 -26z m1348 14 c4 -7 2 -8 -4 -4 -15 9 -15 1 -1 -25 5 -11 15 -16 21 -13 7 4 8 3 4 -4 -10 -16 22 -74 36 -66 7 4 8 3 4 -4 -10 -16 22 -74 36 -66 7 4 8 3 4 -4 -10 -16 22 -74 36 -66 7 4 8 3 4 -4 -9 -14 22 -75 34 -67 5 3 12 0 16 -6 4 -8 3 -9 -4 -5 -6 3 -16 -2 -21 -13 -14 -26 -14 -34 1 -25 7 4 8 3 4 -5 -4 -6 -11 -9 -16 -6 -5 3 -14 -3 -19 -14 -14 -26 -14 -34 1 -25 7 4 8 3 4 -5 -4 -6 -11 -9 -16 -6 -5 3 -16 -8 -25 -24 -18 -36 -19 -45 -3 -35 7 4 8 3 4 -5 -4 -6 -11 -9 -16 -6 -12 8 -43 -53 -34 -67 4 -7 3 -8 -4 -4 -6 3 -16 -2 -21 -13 -14 -26 -14 -34 1 -25 7 4 8 3 4 -5 -4 -6 -11 -9 -16 -6 -5 3 -14 -3 -19 -14 -14 -26 -14 -34 1 -25 7 4 8 3 4 -5 -4 -6 -12 -9 -17 -5 -6 3 -9 -2 -7 -12 3 -18 -8 -19 -206 -19 l-209 0 -16 25 c-9 14 -11 21 -3 16 6 -4 12 -4 12 -1 0 3 -37 69 -81 147 -84 145 -118 214 -100 204 5 -4 15 2 20 13 14 26 14 34 -1 25 -7 -4 -8 -3 -4 5 4 6 11 9 16 6 4 -3 22 20 39 50 34 59 37 70 19 59 -7 -4 -8 -3 -4 5 4 6 11 9 16 6 4 -3 22 20 39 50 34 59 37 70 19 59 -7 -4 -8 -3 -4 5 4 6 11 9 16 6 5 -3 14 4 20 15 11 20 19 21 220 20 139 -1 212 -5 216 -12z m1309 2 c4 -6 10 -8 15 -5 5 3 14 -5 20 -17 11 -22 10 -22 -4 -4 -20 25 -20 13 -1 -25 9 -16 20 -27 25 -24 5 3 12 0 16 -6 4 -8 3 -9 -4 -5 -16 10 -15 1 3 -35 9 -16 20 -27 25 -24 5 3 12 0 16 -6 4 -8 3 -9 -4 -5 -16 10 -15 1 3 -35 9 -16 20 -27 25 -24 5 3 12 0 16 -6 4 -8 3 -9 -4 -5 -16 10 -15 1 3 -35 9 -16 20 -27 25 -24 5 3 12 0 16 -6 5 -8 3 -9 -6 -4 -10 6 -11 4 -5 -11 5 -10 8 -31 8 -46 0 -16 4 -25 10 -21 6 3 7 1 3 -6 -4 -6 -11 -9 -16 -6 -12 8 -43 -53 -34 -67 4 -7 3 -8 -4 -4 -6 3 -16 -2 -21 -13 -14 -26 -14 -34 1 -25 7 4 8 3 4 -5 -4 -6 -11 -9 -16 -6 -4 3 -22 -20 -39 -50 -34 -59 -37 -70 -19 -59 7 4 8 3 4 -5 -4 -6 -12 -9 -17 -6 -5 4 -16 -10 -26 -29 l-17 -36 -202 0 c-127 0 -205 4 -209 10 -4 6 -10 8 -15 5 -5 -3 -12 0 -16 6 -4 8 -3 9 4 5 16 -10 15 -1 -3 35 -9 16 -20 27 -25 24 -5 -3 -12 0 -16 6 -4 8 -3 9 4 5 16 -10 15 -1 -3 35 -9 16 -20 27 -25 24 -5 -3 -12 0 -16 6 -4 8 -3 9 4 5 16 -10 15 -1 -3 35 -9 16 -20 27 -25 24 -5 -3 -12 0 -16 6 -4 8 -3 9 4 5 16 -10 15 -1 -3 35 -9 16 -20 27 -25 24 -5 -3 -12 0 -16 6 -5 8 -3 9 6 4 10 -6 11 -4 5 11 -4 10 -8 26 -8 34 0 8 4 24 8 34 6 15 5 17 -5 11 -9 -5 -11 -4 -6 4 4 6 11 9 16 6 4 -3 22 20 39 50 34 59 37 70 19 59 -7 -4 -8 -3 -4 5 4 6 11 9 16 6 5 -3 16 8 25 24 18 36 19 45 3 35 -7 -4 -8 -3 -4 5 4 6 11 9 16 6 5 -3 14 3 19 14 14 26 14 34 -1 25 -7 -4 -8 -3 -4 5 4 6 11 9 16 6 5 -3 16 8 25 25 l16 30 199 0 c124 0 201 -4 205 -10z m-2061 -372 c45 -1 -2 -5 -104 -8 l-185 -6 175 -2 175 -2 33 -60 c19 -33 37 -58 42 -55 5 3 12 0 16 -6 4 -8 3 -9 -4 -5 -16 10 -15 1 3 -35 9 -16 20 -27 25 -24 5 3 12 0 16 -6 4 -8 3 -9 -4 -5 -16 10 -15 1 3 -35 9 -16 20 -27 25 -24 5 3 12 0 16 -6 4 -8 3 -9 -4 -5 -16 10 -15 1 3 -35 9 -16 20 -27 25 -24 5 3 12 0 16 -6 4 -8 3 -9 -4 -5 -8 5 -12 -1 -12 -14 0 -13 4 -19 12 -14 7 4 8 3 4 -5 -4 -6 -11 -9 -16 -6 -12 8 -43 -53 -34 -67 4 -7 3 -8 -4 -4 -6 3 -16 -2 -21 -13 -14 -26 -14 -34 1 -25 7 4 8 3 4 -5 -4 -6 -11 -9 -16 -6 -4 3 -22 -20 -39 -50 -34 -59 -37 -70 -19 -59 7 4 8 3 4 -5 -4 -6 -11 -9 -16 -6 -5 3 -18 -12 -30 -35 l-20 -40 -205 0 c-127 0 -206 4 -210 10 -4 6 -10 8 -15 5 -5 -3 -12 0 -16 6 -4 8 -3 9 4 5 16 -10 15 -1 -3 35 -9 16 -20 27 -25 24 -5 -3 -12 0 -16 6 -4 8 -3 9 4 5 16 -10 15 -1 -3 35 -9 16 -20 27 -25 24 -5 -3 -12 0 -16 6 -4 8 -3 9 4 5 16 -10 15 -1 -3 35 -9 16 -20 27 -25 24 -5 -3 -12 0 -16 6 -4 8 -3 9 4 5 15 -9 15 -1 1 25 -5 11 -15 16 -21 13 -7 -4 -8 -3 -4 4 4 6 0 25 -9 41 -8 16 -12 38 -8 47 5 13 3 15 -7 9 -9 -5 -11 -4 -6 4 4 6 11 9 16 6 5 -3 16 8 25 24 18 36 19 45 3 35 -7 -4 -8 -3 -4 5 4 6 11 9 16 6 12 -8 43 53 34 67 -4 7 -3 8 4 4 6 -3 16 2 21 13 14 26 14 34 -1 25 -7 -4 -8 -3 -4 5 4 6 11 9 16 6 12 -8 43 53 34 67 -4 7 -3 8 4 4 6 -3 16 2 21 13 14 26 14 34 -1 25 -8 -4 -10 -3 -5 2 5 5 13 10 18 10 30 4 32 6 14 15 -13 6 28 8 119 4 77 -3 176 -6 220 -7z m1400 -24 c3 -8 10 -13 15 -9 5 3 13 0 17 -6 4 -8 3 -9 -4 -5 -16 10 -15 1 3 -35 9 -16 20 -27 25 -24 5 3 12 0 16 -6 4 -8 3 -9 -4 -5 -16 10 -15 1 3 -35 9 -16 20 -27 25 -24 5 3 12 0 16 -6 4 -8 3 -9 -4 -5 -16 10 -15 1 3 -35 9 -16 20 -27 25 -24 5 3 12 0 16 -6 4 -8 3 -9 -4 -5 -16 10 -15 1 3 -35 9 -16 20 -27 25 -24 5 3 12 0 16 -6 4 -7 3 -9 -3 -6 -5 3 -10 -8 -11 -26 -2 -55 -6 -76 -14 -71 -4 3 -12 -4 -17 -15 -14 -26 -14 -34 1 -25 7 4 8 3 4 -5 -4 -6 -11 -9 -16 -6 -12 8 -43 -53 -34 -67 4 -7 3 -8 -4 -4 -6 3 -16 -2 -21 -13 -14 -26 -14 -34 1 -25 7 4 8 3 4 -5 -4 -6 -11 -9 -16 -6 -5 3 -23 -22 -42 -55 l-33 -60 -201 0 -201 0 -11 26 c-7 14 -16 23 -21 19 -5 -3 -13 0 -17 6 -4 8 -3 9 4 5 16 -10 15 -1 -3 35 -9 16 -20 27 -25 24 -5 -3 -12 0 -16 6 -4 8 -3 9 4 5 16 -10 15 -1 -3 35 -9 16 -20 27 -25 24 -5 -3 -12 0 -16 6 -4 8 -3 9 4 5 16 -10 15 -1 -3 35 -9 16 -20 27 -25 24 -5 -3 -12 0 -16 6 -4 8 -3 9 4 5 16 -10 15 -1 -3 35 -9 16 -20 27 -25 24 -5 -3 -12 0 -16 6 -4 8 -3 9 4 5 14 -8 15 -5 6 19 -6 13 -9 14 -16 3 -8 -10 -9 -10 -5 2 2 8 9 15 16 15 12 0 31 23 31 38 0 5 -5 5 -12 1 -7 -4 -8 -3 -4 5 4 6 11 9 16 6 5 -3 16 8 25 24 18 36 19 45 3 35 -7 -4 -8 -3 -4 5 4 6 11 9 16 6 12 -8 43 53 34 67 -4 7 -3 8 4 4 6 -3 16 2 21 13 14 26 14 34 -1 25 -7 -4 -8 -3 -4 5 4 6 11 9 16 6 12 -8 43 53 34 67 -4 6 -3 8 4 4 6 -3 13 -2 17 4 4 6 83 10 210 10 175 0 204 -2 209 -16z m1389 -89 c32 -58 63 -103 67 -100 5 3 12 0 16 -6 4 -8 3 -9 -4 -5 -16 10 -15 1 3 -35 9 -16 20 -27 25 -24 5 3 12 0 16 -6 4 -8 3 -9 -4 -5 -16 10 -15 5 6 -43 10 -22 22 -38 27 -33 5 4 5 1 1 -6 -4 -7 -11 -10 -16 -7 -5 3 -14 -3 -19 -14 -14 -26 -14 -34 1 -25 7 4 8 3 4 -5 -4 -6 -11 -9 -16 -6 -4 3 -22 -20 -39 -50 -34 -59 -37 -70 -19 -59 7 4 8 3 4 -5 -4 -6 -11 -9 -16 -6 -4 3 -22 -20 -39 -50 -34 -59 -37 -70 -19 -59 7 4 8 3 4 -5 -4 -6 -11 -9 -16 -6 -5 3 -14 -4 -20 -15 -10 -19 -20 -20 -210 -20 -190 0 -200 1 -210 20 -6 11 -15 18 -20 15 -5 -3 -12 0 -16 6 -4 8 -3 9 4 5 16 -10 15 -1 -3 35 -9 16 -20 27 -25 24 -5 -3 -12 0 -16 6 -4 8 -3 9 4 5 16 -10 15 -1 -3 35 -9 16 -20 27 -25 24 -5 -3 -12 0 -16 6 -4 8 -3 9 4 5 16 -10 15 -1 -3 35 -9 16 -20 27 -25 24 -5 -3 -12 0 -16 6 -4 8 -3 9 4 5 16 -10 15 -1 -3 35 -9 16 -20 27 -25 24 -5 -3 -12 0 -16 6 -5 8 -3 9 6 4 10 -6 12 -4 7 9 -4 10 -7 22 -7 27 0 6 -5 7 -12 3 -7 -4 -8 -3 -4 5 4 6 11 9 16 6 4 -3 22 20 39 50 34 59 37 70 19 59 -7 -4 -8 -3 -4 5 4 6 11 9 16 6 4 -3 22 20 39 50 34 59 37 70 19 59 -7 -4 -8 -3 -4 5 4 6 11 9 16 6 5 -3 16 8 25 24 18 36 19 45 3 35 -7 -4 -8 -3 -4 5 4 6 11 9 16 6 5 -3 11 -1 15 5 4 6 82 10 208 10 l202 0 58 -105z m1282 95 c4 -6 10 -8 15 -5 5 3 12 0 16 -6 4 -8 3 -9 -4 -5 -15 9 -15 1 -1 -25 5 -11 15 -16 21 -13 7 4 8 3 4 -4 -10 -16 22 -74 36 -66 7 4 8 3 4 -4 -4 -7 18 -57 49 -112 42 -73 55 -105 50 -121 -5 -16 -4 -19 5 -14 9 5 11 4 6 -4 -4 -6 -11 -9 -16 -6 -5 3 -16 -8 -25 -24 -18 -36 -19 -45 -3 -35 7 4 8 3 4 -5 -4 -6 -11 -9 -16 -6 -12 8 -43 -53 -34 -67 4 -7 3 -8 -4 -4 -6 3 -16 -2 -21 -13 -14 -26 -14 -34 1 -25 7 4 8 3 4 -5 -4 -6 -11 -9 -16 -6 -5 3 -23 -22 -42 -55 l-33 -61 -218 1 c-133 1 -215 5 -211 11 3 5 -35 81 -85 168 -50 87 -91 166 -91 175 0 11 -5 14 -12 10 -7 -4 -8 -3 -4 5 4 6 11 9 16 6 12 -8 43 53 34 67 -4 7 -3 8 4 4 6 -3 16 2 21 13 14 26 14 34 -1 25 -7 -4 -8 -3 -4 5 4 6 11 9 16 6 4 -3 22 20 39 50 34 59 37 70 19 59 -7 -4 -8 -3 -4 5 4 6 11 9 16 6 5 -3 16 8 25 24 19 38 19 50 -1 25 -14 -18 -15 -18 -4 4 6 12 15 20 20 17 5 -3 11 -1 15 5 4 6 81 10 205 10 124 0 201 -4 205 -10z m-3331 -381 c8 -9 8 -10 -2 -4 -8 4 -5 -9 8 -34 12 -25 25 -39 32 -35 7 4 8 3 4 -4 -9 -15 143 -284 156 -276 6 4 5 -3 -1 -15 -14 -25 -23 -28 -15 -3 4 9 -3 4 -15 -13 -23 -33 -27 -50 -9 -39 7 4 8 3 4 -5 -4 -6 -11 -9 -16 -6 -4 3 -22 -20 -39 -50 -34 -59 -37 -70 -19 -59 7 4 8 3 4 -5 -4 -6 -11 -9 -16 -6 -4 3 -22 -20 -39 -50 -34 -59 -37 -70 -19 -59 7 4 8 3 4 -5 -4 -6 -12 -9 -17 -6 -5 4 -12 -1 -15 -9 -5 -14 -34 -16 -208 -16 l-203 0 -11 26 c-7 15 -17 22 -24 18 -7 -4 -8 -3 -4 4 9 14 -142 284 -154 277 -5 -3 -12 0 -16 7 -4 7 -4 10 0 6 5 -4 19 13 32 38 27 51 29 58 12 48 -7 -4 -8 -3 -4 5 4 6 11 9 16 6 5 -3 16 8 25 24 18 36 19 45 3 35 -7 -4 -8 -3 -4 5 4 6 11 9 16 6 5 -3 14 3 19 14 14 26 14 34 -1 25 -7 -4 -8 -3 -4 5 4 6 11 9 16 6 5 -3 16 8 25 24 18 36 19 45 3 35 -7 -4 -8 -3 -4 5 4 6 11 9 16 6 5 -3 14 3 19 14 14 26 14 34 -1 25 -7 -4 -8 -3 -4 5 4 6 12 9 17 6 5 -4 12 1 15 9 4 12 22 16 63 18 l56 1 -65 8 c-37 4 24 6 144 4 145 -3 213 -8 220 -16z m-1300 -84 c26 -47 52 -83 56 -80 5 3 12 0 16 -6 4 -8 3 -9 -4 -5 -16 10 -15 1 3 -35 9 -16 20 -27 25 -24 5 3 12 0 16 -6 4 -8 3 -9 -4 -5 -16 10 -15 1 3 -35 9 -16 20 -27 25 -24 5 3 12 0 16 -6 4 -8 3 -9 -4 -5 -15 9 -15 1 -1 -25 5 -11 15 -16 21 -13 7 4 8 3 4 -5 -4 -6 -11 -9 -16 -6 -5 3 -14 -3 -19 -14 -14 -26 -14 -34 1 -25 7 4 8 3 4 -5 -4 -6 -11 -9 -16 -6 -5 3 -16 -8 -25 -24 -18 -36 -19 -45 -3 -35 7 4 8 3 4 -5 -4 -6 -11 -9 -16 -6 -5 3 -14 -3 -19 -14 -14 -26 -14 -34 1 -25 7 4 8 3 4 -5 -4 -6 -11 -9 -16 -6 -5 3 -16 -8 -25 -24 -18 -36 -19 -45 -3 -35 7 4 8 3 4 -5 -4 -6 -11 -9 -16 -6 -12 8 -43 -53 -34 -67 4 -7 3 -8 -5 -4 -6 4 -14 0 -17 -8 -5 -14 -34 -16 -209 -16 -175 0 -204 2 -209 16 -3 8 -10 13 -15 9 -5 -3 -13 0 -17 6 -4 8 -3 9 4 5 16 -10 15 -1 -3 35 -9 16 -20 27 -25 24 -5 -3 -12 0 -16 6 -4 8 -3 9 4 5 15 -9 15 -1 1 25 -5 11 -15 16 -21 13 -7 -4 -8 -3 -4 4 10 16 -22 74 -36 66 -7 -4 -8 -3 -4 4 10 16 -22 74 -36 66 -7 -4 -8 -3 -4 4 4 6 0 24 -8 39 -12 25 -12 32 0 56 8 15 12 33 8 39 -4 7 -3 8 4 4 6 -3 16 2 21 13 14 26 14 34 -1 25 -7 -4 -8 -3 -4 5 4 6 11 9 16 6 4 -3 22 20 39 50 34 59 37 70 19 59 -7 -4 -8 -3 -4 5 4 6 11 9 16 6 4 -3 22 20 39 50 l31 55 203 0 203 0 48 -85z m2637 50 c12 -19 25 -33 29 -30 5 3 12 0 16 -6 4 -8 3 -9 -4 -5 -15 9 -15 1 -1 -25 5 -11 15 -16 21 -13 7 4 8 3 4 -4 -10 -16 22 -74 36 -66 7 4 8 3 4 -4 -10 -16 22 -74 36 -66 7 4 8 3 4 -4 -9 -15 22 -75 34 -67 6 3 7 -1 4 -10 -4 -9 -3 -15 2 -13 5 2 10 -1 12 -7 1 -5 -3 -10 -9 -10 -6 0 -17 -11 -24 -25 -18 -31 -19 -43 -3 -34 7 4 8 3 4 -5 -4 -6 -11 -9 -16 -6 -12 8 -43 -53 -34 -67 4 -7 3 -8 -4 -4 -6 3 -16 -2 -21 -13 -14 -26 -14 -34 1 -25 7 4 8 3 4 -5 -4 -6 -11 -9 -16 -6 -12 8 -43 -53 -34 -67 4 -7 3 -8 -4 -4 -6 3 -16 -2 -21 -13 -14 -26 -14 -34 1 -25 7 4 8 3 4 -5 -4 -6 -11 -9 -16 -6 -5 3 -13 -2 -17 -10 -8 -13 -38 -15 -212 -13 l-203 3 -100 173 c-81 142 -97 176 -88 191 13 26 13 34 -2 25 -7 -4 -8 -3 -4 5 4 6 11 9 16 6 12 -8 43 53 34 67 -4 7 -3 8 4 4 6 -3 16 2 21 13 14 26 14 34 -1 25 -7 -4 -8 -3 -4 5 4 6 11 9 16 6 4 -3 22 20 39 50 34 59 37 70 19 59 -7 -4 -8 -3 -4 5 4 6 11 9 16 6 5 -3 16 8 25 25 l16 30 200 0 200 0 20 -35z m1324 25 c4 -6 11 -7 17 -4 7 4 8 2 4 -4 -10 -16 22 -74 36 -66 7 4 8 3 4 -4 -10 -16 22 -74 36 -66 7 4 8 3 4 -4 -10 -16 22 -74 36 -66 7 4 8 3 4 -5 -4 -6 6 -35 23 -64 l30 -53 -29 -52 c-33 -56 -36 -67 -18 -56 7 4 8 3 4 -5 -4 -6 -11 -9 -16 -6 -4 3 -22 -20 -39 -50 -34 -59 -37 -70 -19 -59 7 4 8 3 4 -5 -4 -6 -11 -9 -16 -6 -5 3 -16 -8 -25 -24 -18 -36 -19 -45 -3 -35 7 4 8 3 4 -5 -4 -6 -12 -9 -17 -6 -5 4 -14 -5 -21 -19 l-11 -26 -206 -2 -206 -2 215 -6 215 -6 -215 1 c-204 0 -215 1 -212 19 2 10 -1 15 -7 12 -5 -4 -13 -1 -17 5 -4 8 -3 9 4 5 7 -4 12 -5 12 -2 0 4 -41 78 -91 165 -69 122 -89 165 -84 182 5 16 4 19 -5 14 -9 -5 -11 -4 -6 4 4 6 11 9 16 6 12 -8 43 53 34 67 -4 7 -3 8 4 4 6 -3 16 2 21 13 14 26 14 34 -1 25 -7 -4 -8 -3 -4 5 4 6 11 9 16 6 4 -3 22 20 39 50 34 59 37 70 19 59 -7 -4 -8 -3 -4 5 4 6 12 9 17 6 5 -4 16 10 26 29 l17 36 202 0 c127 0 205 -4 209 -10z m-3329 -405 c9 -14 21 -22 27 -18 6 3 7 1 3 -5 -10 -16 22 -74 36 -66 7 4 8 3 4 -4 -10 -16 22 -74 36 -66 7 4 8 3 4 -4 -10 -16 22 -74 36 -66 7 4 8 3 4 -5 -4 -6 4 -32 19 -56 27 -47 44 -62 25 -22 -11 21 -10 21 4 3 15 -19 12 -41 -4 -31 -12 8 -43 -53 -34 -67 4 -7 3 -8 -4 -4 -6 3 -16 -2 -21 -13 -14 -26 -14 -34 1 -25 7 4 8 3 4 -5 -4 -6 -11 -9 -16 -6 -4 3 -22 -20 -39 -50 -34 -59 -37 -70 -19 -59 7 4 8 3 4 -5 -4 -6 -11 -9 -16 -6 -5 3 -21 -17 -36 -45 l-27 -50 -203 0 -203 0 -96 170 c-54 93 -102 168 -107 167 -6 -1 -13 5 -15 13 -3 11 -2 12 5 2 6 -9 12 -6 20 13 15 32 15 38 0 29 -7 -4 -8 -3 -4 5 4 6 11 9 16 6 5 -3 14 3 19 14 14 26 14 34 -1 25 -7 -4 -8 -3 -4 5 4 6 11 9 16 6 5 -3 16 8 25 24 18 36 19 45 3 35 -7 -4 -8 -3 -4 5 4 6 11 9 16 6 12 -8 43 53 34 67 -4 7 -3 8 4 4 6 -3 16 2 21 13 14 26 14 34 -1 25 -7 -4 -8 -3 -4 5 4 6 11 9 16 6 5 -3 16 8 25 25 l16 30 199 0 200 0 16 -25z m1350 13 c4 -7 2 -8 -4 -4 -15 9 -15 1 -1 -25 5 -11 15 -16 21 -13 7 4 8 3 4 -4 -10 -16 22 -74 36 -66 7 4 8 3 4 -4 -10 -16 22 -74 36 -66 7 4 8 3 4 -4 -10 -16 22 -74 36 -66 7 4 8 3 4 -4 -9 -14 22 -75 34 -67 5 3 12 0 16 -6 4 -7 3 -9 -4 -6 -6 4 -23 -17 -41 -48 -34 -59 -37 -70 -19 -59 7 4 8 3 4 -5 -4 -6 -11 -9 -16 -6 -5 3 -16 -8 -25 -24 -18 -36 -19 -45 -3 -35 7 4 8 3 4 -5 -4 -6 -11 -9 -16 -6 -5 3 -14 -3 -19 -14 -14 -26 -14 -34 1 -25 7 4 8 3 4 -5 -4 -6 -11 -9 -16 -6 -5 3 -16 -8 -25 -24 -18 -36 -19 -45 -3 -35 7 4 8 3 4 -5 -4 -6 -12 -9 -17 -6 -5 4 -14 -5 -21 -19 l-11 -26 -201 0 -201 0 -53 95 c-30 52 -58 93 -62 90 -5 -3 -12 0 -16 6 -4 8 -3 9 4 5 16 -10 15 -1 -3 35 -9 16 -20 27 -25 24 -5 -3 -12 0 -16 6 -4 8 -3 9 4 5 16 -10 15 -1 -3 35 -9 16 -20 27 -25 24 -5 -3 -12 0 -16 6 -4 7 -3 9 3 6 6 -4 13 1 16 11 2 9 8 26 13 36 5 15 4 17 -6 11 -9 -5 -11 -4 -6 4 4 6 11 9 16 6 4 -3 22 20 39 50 34 59 37 70 19 59 -7 -4 -8 -3 -4 5 4 6 11 9 16 6 4 -3 22 20 39 50 34 59 37 70 19 59 -7 -4 -8 -3 -4 5 4 6 11 9 16 6 5 -3 16 8 25 25 l16 31 209 -1 c139 -1 212 -5 216 -12z m1309 2 c3 -6 10 -8 15 -5 5 3 14 -5 20 -17 11 -22 10 -22 -4 -4 -20 25 -20 13 -1 -25 9 -16 20 -27 25 -24 5 3 12 0 16 -6 4 -8 3 -9 -4 -5 -16 10 -15 1 3 -35 9 -16 20 -27 25 -24 5 3 12 0 16 -6 4 -8 3 -9 -4 -5 -16 10 -15 1 3 -35 9 -16 20 -27 25 -24 5 3 12 0 16 -6 4 -8 3 -9 -4 -5 -16 10 -15 1 3 -35 9 -16 20 -27 25 -24 5 3 12 0 16 -6 5 -8 3 -9 -6 -4 -10 6 -11 4 -6 -11 5 -10 8 -25 7 -31 -1 -7 -2 -22 -3 -32 -1 -11 -6 -17 -10 -15 -4 3 -12 -4 -17 -15 -14 -26 -14 -34 1 -25 7 4 8 3 4 -5 -4 -6 -11 -9 -16 -6 -4 3 -22 -20 -39 -50 -34 -59 -37 -70 -19 -59 7 4 8 3 4 -5 -4 -6 -11 -9 -16 -6 -4 3 -22 -20 -39 -50 -34 -59 -37 -70 -19 -59 7 4 8 3 4 -5 -4 -6 -11 -9 -16 -6 -5 3 -11 1 -15 -5 -4 -6 -79 -10 -200 -10 -121 0 -196 4 -200 10 -4 6 -10 8 -15 5 -5 -3 -12 0 -16 6 -4 8 -3 9 4 5 16 -10 15 -1 -3 35 -9 16 -20 27 -25 24 -5 -3 -12 0 -16 6 -4 8 -3 9 4 5 16 -10 15 -1 -3 35 -9 16 -20 27 -25 24 -5 -3 -12 0 -16 6 -4 8 -3 9 4 5 16 -10 15 -1 -3 35 -9 16 -20 27 -25 24 -5 -3 -12 0 -16 6 -4 8 -3 9 4 5 16 -10 15 -1 -3 35 -9 16 -20 27 -25 24 -5 -3 -12 0 -16 6 -5 8 -3 9 6 4 10 -6 11 -4 5 11 -4 10 -8 29 -8 41 1 14 -3 20 -10 16 -6 -3 -7 -1 -3 6 4 6 11 9 16 6 4 -3 22 20 39 50 34 59 37 70 19 59 -7 -4 -8 -3 -4 5 4 6 11 9 16 6 5 -3 16 8 25 24 18 36 19 45 3 35 -7 -4 -8 -3 -4 5 4 6 11 9 16 6 5 -3 14 3 19 14 14 26 14 34 -1 25 -7 -4 -8 -3 -4 5 4 6 11 9 16 6 5 -3 16 8 25 24 18 36 19 45 3 35 -6 -4 -8 -3 -4 4 9 14 422 17 431 2z m1350 -20 c9 -17 20 -28 25 -25 5 3 12 0 16 -6 4 -8 3 -9 -4 -5 -16 10 -15 1 3 -35 9 -16 20 -27 25 -24 5 3 12 0 16 -6 4 -8 3 -9 -4 -5 -15 9 -15 1 -1 -25 5 -11 15 -16 21 -13 7 4 8 3 4 -4 -10 -16 22 -74 36 -66 7 4 8 3 4 -4 -9 -15 22 -75 34 -67 6 4 7 -1 3 -11 -4 -11 -3 -15 5 -10 6 3 14 2 17 -4 4 -6 1 -9 -6 -8 -6 2 -14 -3 -17 -11 -3 -9 0 -11 8 -6 9 5 11 4 6 -4 -4 -6 -11 -9 -16 -6 -5 3 -16 -8 -25 -24 -18 -36 -19 -45 -3 -35 7 4 8 3 4 -5 -4 -6 -11 -9 -16 -6 -5 3 -14 -3 -19 -14 -14 -26 -14 -34 1 -25 7 4 8 3 4 -5 -4 -6 -11 -9 -16 -6 -5 3 -16 -8 -25 -24 -18 -36 -19 -45 -3 -35 7 4 8 3 4 -5 -4 -6 -11 -9 -16 -6 -5 3 -14 -3 -19 -14 -14 -26 -14 -34 1 -25 7 4 8 3 4 -5 -4 -6 -11 -9 -16 -6 -5 3 -16 -8 -25 -24 -18 -36 -19 -44 -2 -35 7 4 9 3 4 -2 -5 -5 -12 -9 -15 -10 -4 0 -14 -4 -22 -7 -8 -4 -89 -8 -180 -10 l-165 -3 182 1 c99 0 179 -3 176 -7 -8 -13 -421 -10 -429 4 -4 6 -3 8 2 5 6 -3 16 -2 24 4 13 7 13 9 -1 9 -9 0 -42 47 -83 120 -38 66 -72 118 -76 115 -5 -3 -12 0 -16 6 -4 8 -3 9 4 5 16 -10 15 -1 -3 35 -9 16 -20 27 -25 24 -5 -3 -12 0 -16 6 -4 8 -3 9 4 5 14 -8 15 -5 6 19 -6 13 -9 14 -16 3 -8 -10 -9 -10 -5 2 2 8 9 14 16 13 14 -4 44 54 35 69 -4 7 -3 8 4 4 6 -3 16 2 21 13 14 26 14 34 -1 25 -7 -4 -8 -3 -4 5 4 6 11 9 16 6 4 -3 22 20 39 50 34 59 37 70 19 59 -7 -4 -8 -3 -4 5 4 6 11 9 16 6 5 -3 16 8 25 24 19 38 19 50 -1 25 -14 -18 -15 -18 -4 4 6 12 15 20 21 17 5 -4 12 1 15 9 5 14 34 16 210 16 l203 0 16 -30z m-5350 10 c4 -6 10 -8 15 -5 5 3 12 0 16 -6 4 -8 3 -9 -4 -5 -16 10 -15 1 3 -35 9 -16 20 -27 25 -24 5 3 12 0 16 -6 4 -8 3 -9 -4 -5 -15 9 -15 1 -1 -25 5 -11 15 -16 21 -13 7 4 8 3 4 -4 -10 -16 22 -74 36 -66 7 4 8 3 4 -4 -10 -16 22 -74 36 -66 7 4 8 3 4 -4 -4 -6 0 -25 9 -42 11 -22 13 -35 5 -49 -13 -26 -13 -34 2 -25 7 4 8 3 4 -5 -4 -6 -11 -9 -16 -6 -5 3 -16 -8 -25 -24 -18 -36 -19 -45 -3 -35 7 4 8 3 4 -5 -4 -6 -11 -9 -16 -6 -12 8 -43 -53 -34 -67 4 -7 3 -8 -4 -4 -6 3 -16 -2 -21 -13 -14 -26 -14 -34 1 -25 7 4 8 3 4 -5 -4 -6 -11 -9 -16 -6 -12 8 -43 -53 -34 -67 4 -7 3 -8 -5 -4 -6 4 -14 0 -17 -8 -5 -14 -35 -16 -213 -16 l-207 0 -88 155 c-49 85 -92 153 -96 150 -5 -3 -12 0 -16 6 -5 8 -3 9 6 4 9 -5 10 -2 6 13 -4 12 0 34 9 52 9 17 13 36 9 42 -4 7 -3 8 4 4 6 -3 16 2 21 13 14 26 14 34 -1 25 -7 -4 -8 -3 -4 5 4 6 11 9 16 6 4 -3 22 20 39 50 34 59 37 70 19 59 -7 -4 -8 -3 -4 5 4 6 11 9 16 6 5 -3 16 8 25 24 19 38 19 50 -1 25 -14 -18 -15 -18 -4 4 6 12 15 20 21 17 5 -4 12 1 15 9 5 14 34 16 209 16 127 0 206 -4 210 -10z m-740 -360 c64 -6 59 -7 -54 -8 -68 -1 -122 -4 -120 -7 3 -2 64 -5 137 -6 80 0 135 -5 139 -12 3 -6 1 -7 -5 -3 -16 10 -15 1 3 -35 9 -16 20 -27 25 -24 5 3 12 0 16 -6 4 -8 3 -9 -4 -5 -16 10 -15 1 3 -35 9 -16 20 -27 25 -24 5 3 12 0 16 -6 4 -8 3 -9 -4 -5 -16 10 -15 1 3 -35 9 -16 20 -27 25 -24 5 3 12 0 16 -6 4 -8 3 -9 -4 -5 -15 9 -15 1 -1 -25 5 -11 15 -16 21 -13 7 4 8 3 4 -4 -4 -6 0 -25 9 -42 9 -18 13 -40 9 -52 -4 -15 -3 -18 6 -13 9 5 11 4 6 -4 -4 -6 -11 -9 -16 -6 -4 3 -22 -20 -39 -50 -34 -59 -37 -70 -19 -59 7 4 8 3 4 -5 -4 -6 -11 -9 -16 -6 -5 3 -16 -8 -25 -24 -18 -36 -19 -45 -3 -35 7 4 8 3 4 -5 -4 -6 -11 -9 -16 -6 -5 3 -14 -3 -19 -14 -14 -26 -14 -34 1 -25 7 4 8 3 4 -5 -4 -6 -11 -9 -16 -6 -5 3 -16 -8 -25 -24 -18 -36 -19 -45 -2 -35 8 5 8 2 -2 -9 -12 -15 -37 -17 -230 -15 l-216 2 220 6 220 6 -212 2 -211 2 -62 110 c-34 61 -66 108 -70 105 -5 -3 -12 0 -16 6 -4 8 -3 9 4 5 16 -10 15 -1 -3 35 -9 16 -20 27 -25 24 -5 -3 -12 0 -16 6 -4 8 -3 9 4 5 15 -9 15 -1 1 25 -5 11 -15 17 -22 13 -9 -5 -8 -3 1 7 15 16 16 33 0 23 -7 -4 -8 -3 -4 5 4 6 11 9 16 6 4 -3 22 20 39 50 34 59 37 70 19 59 -7 -4 -8 -3 -4 5 4 6 11 9 16 6 4 -3 22 20 39 50 34 59 37 70 19 59 -7 -4 -8 -3 -4 5 4 6 11 9 16 6 5 -3 16 8 25 24 18 36 19 44 3 35 -8 -4 -10 -3 -5 2 5 5 12 9 15 10 4 0 14 4 22 7 8 4 33 8 55 10 24 2 17 4 -17 3 -31 -1 -54 2 -51 7 5 9 252 7 348 -3z m2756 -13 c10 -21 10 -21 -5 -3 -30 37 -16 3 40 -95 31 -54 60 -97 64 -94 5 3 12 0 16 -6 4 -8 3 -9 -4 -5 -16 10 -15 1 3 -35 9 -16 20 -27 25 -24 5 3 12 0 16 -6 4 -8 3 -9 -4 -5 -16 10 -15 1 3 -35 9 -16 20 -27 25 -24 5 3 12 0 16 -6 4 -7 3 -9 -3 -6 -6 4 -13 -1 -16 -11 -2 -9 -8 -26 -13 -36 -5 -15 -4 -17 6 -11 9 5 11 4 6 -4 -4 -6 -11 -9 -16 -6 -5 3 -14 -3 -19 -14 -14 -26 -14 -34 1 -25 7 4 8 3 4 -5 -4 -6 -11 -9 -16 -6 -5 3 -16 -8 -25 -24 -18 -36 -19 -45 -3 -35 7 4 8 3 4 -5 -4 -6 -11 -9 -16 -6 -12 8 -43 -53 -34 -67 4 -7 3 -8 -4 -4 -6 3 -16 -2 -21 -13 -14 -26 -14 -34 1 -25 7 4 8 3 4 -5 -4 -6 -12 -9 -17 -6 -5 4 -14 -5 -21 -19 l-11 -26 -207 0 -206 0 -17 36 c-10 19 -21 33 -26 29 -5 -3 -13 0 -17 6 -4 8 -3 9 4 5 15 -9 15 -1 1 25 -5 11 -15 16 -21 13 -7 -4 -8 -3 -4 4 10 16 -22 74 -36 66 -7 -4 -8 -3 -4 4 10 16 -22 74 -36 66 -7 -4 -8 -3 -4 4 9 15 -22 74 -34 67 -13 -8 6 40 36 92 27 46 30 58 12 47 -7 -4 -8 -3 -4 5 4 6 11 9 16 6 4 -3 22 20 39 50 34 59 37 70 19 59 -7 -4 -8 -3 -4 5 4 6 11 9 16 6 5 -3 16 8 25 24 18 36 19 45 3 35 -7 -4 -8 -3 -4 5 4 6 11 9 16 6 5 -3 14 3 20 14 10 19 22 21 153 24 l142 3 -152 0 c-83 -1 -149 3 -146 7 2 4 99 7 214 7 204 -1 209 -2 220 -23z m1323 -13 c3 -8 10 -13 15 -9 5 3 13 0 17 -6 4 -8 3 -9 -4 -5 -16 10 -15 1 3 -35 9 -16 20 -27 25 -24 5 3 12 0 16 -6 4 -8 3 -9 -4 -5 -16 10 -15 1 3 -35 9 -16 20 -27 25 -24 5 3 12 0 16 -6 4 -8 3 -9 -4 -5 -16 10 -15 1 3 -35 9 -16 20 -27 25 -24 5 3 12 0 16 -6 4 -8 3 -9 -4 -5 -16 10 -15 1 3 -35 9 -16 20 -27 25 -24 5 3 12 0 16 -6 4 -8 3 -9 -4 -5 -15 9 -15 1 -1 -25 5 -11 15 -16 21 -13 7 4 8 3 4 -5 -4 -6 -11 -9 -16 -6 -5 3 -14 -3 -19 -14 -14 -26 -14 -34 1 -25 7 4 8 3 4 -5 -4 -6 -11 -9 -16 -6 -12 8 -43 -53 -34 -67 4 -7 3 -8 -4 -4 -6 3 -16 -2 -21 -13 -14 -26 -14 -34 1 -25 7 4 8 3 4 -5 -4 -6 -11 -9 -16 -6 -4 3 -22 -20 -39 -50 -34 -59 -37 -70 -19 -59 7 4 8 3 4 -5 -4 -6 -12 -9 -17 -6 -5 4 -14 -5 -21 -19 l-11 -26 -203 0 c-174 0 -203 2 -208 16 -3 8 -10 13 -15 9 -5 -3 -13 0 -17 6 -4 8 -3 9 4 5 16 -10 15 -1 -3 35 -9 16 -20 27 -25 24 -5 -3 -12 0 -16 6 -4 8 -3 9 4 5 16 -10 15 -1 -3 35 -9 16 -20 27 -25 24 -5 -3 -12 0 -16 6 -4 8 -3 9 4 5 16 -10 15 -1 -3 35 -9 16 -20 27 -25 24 -5 -3 -12 0 -16 6 -4 8 -3 9 4 5 16 -10 15 -1 -3 35 -9 16 -20 27 -25 24 -5 -3 -12 0 -16 6 -4 8 -3 9 4 5 14 -9 15 3 3 23 -6 10 -4 25 5 43 8 16 12 34 8 40 -4 7 -3 8 4 4 6 -3 16 2 21 13 14 26 14 34 -1 25 -7 -4 -8 -3 -4 5 4 6 11 9 16 6 12 -8 43 53 34 67 -4 7 -3 8 4 4 6 -3 16 2 21 13 14 26 14 34 -1 25 -7 -4 -8 -3 -4 5 4 6 11 9 16 6 4 -3 22 20 39 50 l31 55 204 0 c176 0 205 -2 210 -16z m1352 4 c4 -7 2 -8 -4 -4 -16 10 -15 1 3 -35 9 -16 20 -27 25 -24 5 3 12 0 16 -6 4 -8 3 -9 -4 -5 -16 10 -15 1 3 -35 9 -16 20 -27 25 -24 5 3 12 0 16 -6 4 -8 3 -9 -4 -5 -15 9 -15 1 -1 -25 5 -11 15 -16 21 -13 7 4 8 3 4 -4 -10 -16 22 -74 36 -66 6 4 8 3 4 -4 -3 -6 1 -26 10 -45 17 -35 16 -36 -15 -91 -34 -60 -37 -71 -19 -60 7 4 8 3 4 -5 -4 -6 -11 -9 -16 -6 -4 3 -22 -20 -39 -50 -34 -59 -37 -70 -19 -59 7 4 8 3 4 -5 -4 -6 -11 -9 -16 -6 -5 3 -16 -8 -25 -24 -18 -36 -19 -45 -3 -35 7 4 8 3 4 -5 -4 -6 -12 -9 -17 -6 -5 4 -12 -1 -15 -10 -6 -14 -33 -16 -220 -15 -141 1 -216 5 -220 12 -4 7 -2 8 4 4 16 -10 15 -1 -3 35 -9 16 -20 27 -25 24 -5 -3 -12 0 -16 6 -4 8 -3 9 4 5 16 -10 15 -1 -3 35 -9 16 -20 27 -25 24 -5 -3 -12 0 -16 6 -4 8 -3 9 4 5 15 -9 15 -1 1 25 -5 11 -15 16 -21 13 -7 -4 -8 -3 -4 4 10 16 -22 74 -36 66 -7 -4 -8 -3 -4 4 4 6 0 25 -9 42 -16 30 -15 33 14 85 34 59 37 70 19 59 -7 -4 -8 -3 -4 5 4 6 11 9 16 6 4 -3 22 20 39 50 34 59 37 70 19 59 -7 -4 -8 -3 -4 5 4 6 11 9 16 6 5 -3 16 8 25 24 18 36 19 45 3 35 -7 -4 -8 -3 -4 5 4 6 11 9 16 6 5 -3 14 4 20 15 11 20 19 21 220 20 139 -1 212 -5 216 -12z m1345 -11 c10 -21 10 -21 -5 -3 -26 33 -18 8 20 -60 20 -35 40 -62 44 -59 5 3 12 0 16 -6 4 -8 3 -9 -4 -5 -16 10 -15 1 3 -35 9 -16 20 -27 25 -24 5 3 12 0 16 -6 4 -8 3 -9 -4 -5 -16 10 -15 1 3 -35 9 -16 20 -27 25 -24 5 3 12 0 16 -6 4 -8 3 -9 -4 -5 -15 9 -15 1 -1 -25 5 -11 15 -17 22 -13 9 5 8 3 0 -7 -16 -16 -17 -33 -1 -23 7 4 8 3 4 -5 -4 -6 -12 -8 -18 -5 -8 5 -9 1 -5 -10 4 -10 3 -15 -3 -11 -5 3 -14 -3 -19 -14 -14 -26 -14 -34 1 -25 7 4 8 3 4 -5 -4 -6 -11 -9 -16 -6 -4 3 -22 -20 -39 -50 -34 -59 -37 -70 -19 -59 7 4 8 3 4 -5 -4 -6 -11 -9 -16 -6 -4 3 -22 -20 -39 -50 -34 -60 -37 -70 -18 -59 7 4 9 3 4 -2 -5 -5 -12 -9 -15 -10 -4 0 -14 -4 -22 -7 -8 -4 -94 -8 -190 -10 l-175 -3 192 1 c105 0 189 -3 186 -7 -8 -13 -421 -10 -429 4 -5 7 -3 8 6 3 8 -5 11 -3 8 6 -3 8 -10 14 -15 14 -6 0 -15 4 -20 9 -5 5 -3 6 5 2 16 -9 15 -1 -3 35 -9 16 -20 27 -25 24 -5 -3 -12 0 -16 6 -4 8 -3 9 4 5 16 -10 15 -1 -3 35 -9 16 -20 27 -25 24 -5 -3 -12 0 -16 6 -4 8 -3 9 4 5 16 -10 15 -1 -3 35 -9 16 -20 27 -25 24 -5 -3 -12 0 -16 6 -4 8 -3 9 4 5 16 -10 15 -1 -3 35 -9 16 -20 27 -25 24 -5 -3 -12 0 -16 6 -5 8 -3 9 6 4 10 -6 11 -4 6 11 -5 10 -11 27 -13 36 -3 10 -10 15 -16 11 -6 -3 -7 -1 -3 6 4 6 12 8 18 5 8 -5 9 -1 5 10 -4 10 -3 15 3 11 5 -3 14 3 19 14 14 26 14 34 -1 25 -7 -4 -8 -3 -4 5 4 6 11 9 16 6 12 -8 43 53 34 67 -4 7 -3 8 4 4 6 -3 16 2 21 13 14 26 14 34 -1 25 -7 -4 -8 -3 -4 5 4 6 11 9 16 6 4 -3 22 20 39 50 34 59 37 70 19 59 -7 -4 -8 -3 -4 5 4 6 11 9 16 6 5 -3 12 -1 15 5 4 7 81 10 221 10 210 -1 214 -2 225 -23z m1313 7 c3 -8 10 -13 15 -9 5 3 13 0 17 -6 4 -8 3 -9 -4 -5 -16 10 -15 1 3 -35 9 -16 20 -27 25 -24 5 3 12 0 16 -6 4 -8 3 -9 -4 -5 -15 9 -15 1 -1 -25 5 -11 15 -16 21 -13 7 4 8 3 4 -4 -10 -16 22 -74 36 -66 7 4 8 3 4 -4 -8 -13 21 -75 32 -68 8 5 12 -16 14 -71 1 -18 6 -29 11 -26 6 3 7 1 3 -6 -4 -6 -11 -9 -16 -6 -4 3 -22 -20 -39 -50 -34 -59 -37 -70 -19 -59 7 4 8 3 4 -5 -4 -6 -11 -9 -16 -6 -4 3 -22 -20 -39 -50 -34 -59 -37 -70 -19 -59 7 4 8 3 4 -5 -4 -6 -11 -9 -16 -6 -5 3 -16 -8 -25 -24 -18 -36 -19 -45 -2 -35 8 5 7 2 -2 -9 -12 -16 -36 -17 -224 -15 l-210 3 -15 25 -14 25 18 -23 c19 -22 22 -22 229 -19 l210 2 -210 3 -210 2 -97 173 c-54 95 -98 179 -98 186 0 7 -5 9 -12 5 -7 -4 -8 -3 -4 5 4 6 11 9 16 6 4 -3 22 20 39 50 34 59 37 70 19 59 -7 -4 -8 -3 -4 5 4 6 11 9 16 6 5 -3 16 8 25 24 18 36 19 45 3 35 -7 -4 -8 -3 -4 5 4 6 11 9 16 6 5 -3 14 3 19 14 14 26 14 34 -1 25 -7 -4 -8 -3 -4 5 4 6 11 9 16 6 5 -3 16 8 25 24 18 36 19 45 3 35 -7 -4 -8 -3 -4 5 4 6 11 9 16 6 5 -3 11 -1 15 5 4 6 83 10 210 10 175 0 204 -2 209 -16z m-6674 -14 c6 -11 15 -18 20 -15 5 3 12 0 16 -6 4 -8 3 -9 -4 -5 -16 10 -15 1 3 -35 9 -16 20 -27 25 -24 5 3 12 0 16 -6 4 -8 3 -9 -4 -5 -16 10 -15 1 3 -35 9 -16 20 -27 25 -24 5 3 12 0 16 -6 4 -8 3 -9 -4 -5 -16 10 -15 1 3 -35 9 -16 20 -27 25 -24 5 3 12 0 16 -6 4 -8 3 -9 -4 -5 -16 10 -15 1 3 -35 9 -16 20 -27 25 -24 5 3 12 0 16 -6 5 -8 3 -9 -6 -4 -8 5 -11 3 -8 -6 3 -8 11 -13 17 -11 7 1 10 -2 6 -8 -3 -6 -10 -8 -15 -5 -5 3 -14 -3 -19 -14 -14 -26 -14 -34 1 -25 7 4 8 3 4 -5 -4 -6 -11 -9 -16 -6 -4 3 -22 -20 -39 -50 -34 -59 -37 -70 -19 -59 7 4 8 3 4 -5 -4 -6 -11 -9 -16 -6 -4 3 -22 -20 -39 -50 -34 -59 -37 -70 -19 -59 7 4 8 3 4 -5 -4 -6 -12 -9 -17 -6 -5 4 -14 -6 -21 -20 l-12 -26 -213 1 c-141 1 -215 5 -219 12 -4 7 -2 8 4 4 16 -10 15 -1 -3 35 -9 16 -20 27 -25 24 -5 -3 -12 0 -16 6 -4 8 -3 9 4 5 16 -10 15 -1 -3 35 -9 16 -20 27 -25 24 -5 -3 -12 0 -16 6 -4 8 -3 9 4 5 16 -10 15 -1 -3 35 -9 16 -20 27 -25 24 -5 -3 -12 0 -16 6 -4 8 -3 9 4 5 16 -10 15 -1 -3 35 -9 16 -20 27 -25 24 -5 -3 -12 0 -16 6 -5 8 -3 9 6 4 10 -6 11 -4 5 11 -5 10 -8 28 -8 39 0 11 3 29 8 39 6 15 5 17 -5 11 -9 -5 -11 -4 -6 4 4 6 11 9 16 6 5 -3 14 3 19 14 14 26 14 34 -1 25 -7 -4 -8 -3 -4 5 4 6 11 9 16 6 5 -3 16 8 25 24 18 36 19 45 3 35 -7 -4 -8 -3 -4 5 4 6 11 9 16 6 12 -8 43 53 34 67 -4 7 -3 8 4 4 6 -3 16 2 21 13 14 26 14 34 -1 25 -7 -4 -8 -3 -4 5 4 6 12 9 17 6 5 -4 14 5 21 19 l11 26 203 0 c194 0 204 -1 214 -20z m-829 -347 l154 -8 -145 -5 -145 -6 146 -2 145 -2 48 -85 c26 -47 52 -83 56 -80 5 3 12 0 16 -6 4 -8 3 -9 -4 -5 -16 10 -15 1 3 -35 9 -16 20 -27 25 -24 5 3 12 0 16 -6 4 -8 3 -9 -4 -5 -16 10 -15 1 3 -35 9 -16 20 -27 25 -24 5 3 12 0 16 -6 5 -8 3 -9 -6 -4 -10 6 -12 4 -6 -10 4 -11 -4 -37 -24 -71 -33 -58 -36 -69 -18 -58 7 4 8 3 4 -5 -4 -6 -11 -9 -16 -6 -5 3 -16 -8 -25 -24 -18 -36 -19 -45 -3 -35 7 4 8 3 4 -5 -4 -6 -11 -9 -16 -6 -5 3 -14 -3 -19 -14 -14 -26 -14 -34 1 -25 7 4 8 3 4 -5 -4 -6 -11 -9 -16 -6 -5 3 -16 -8 -25 -24 -18 -36 -19 -45 -3 -35 7 4 8 3 4 -5 -4 -6 -11 -9 -16 -6 -5 3 -14 -4 -20 -15 -10 -19 -20 -20 -215 -20 l-204 0 -16 30 c-9 17 -20 28 -25 25 -5 -3 -12 0 -16 6 -4 8 -3 9 4 5 16 -10 15 -1 -3 35 -9 16 -20 27 -25 24 -5 -3 -12 0 -16 6 -4 8 -3 9 4 5 16 -10 15 -1 -3 35 -9 16 -20 27 -25 24 -5 -3 -12 0 -16 6 -4 8 -3 9 4 5 16 -10 15 -1 -3 35 -9 16 -20 27 -25 24 -5 -3 -12 0 -16 6 -4 8 -3 9 4 5 16 -9 15 3 -3 34 -7 14 -18 25 -24 25 -6 0 -10 5 -8 10 1 6 6 9 11 7 5 -2 6 4 2 13 -3 9 -2 13 4 10 5 -3 14 3 19 14 14 26 14 34 -1 25 -7 -4 -8 -3 -4 5 4 6 11 9 16 6 12 -8 43 53 34 67 -4 7 -3 8 4 4 6 -3 16 2 21 13 14 26 14 34 -1 25 -7 -4 -8 -3 -4 5 4 6 11 9 16 6 4 -3 22 20 39 50 34 59 37 70 19 59 -7 -4 -8 -3 -4 5 4 6 11 9 16 6 5 -3 14 3 20 14 6 13 23 21 48 24 30 3 28 4 -10 3 -25 -1 -44 2 -41 7 2 4 28 7 57 7 29 0 122 -3 207 -7z m2819 -3 c-14 -9 -7 -14 13 -11 5 1 6 -3 2 -8 -9 -15 24 -73 37 -65 7 4 8 3 4 -4 -10 -16 22 -74 36 -66 7 4 8 3 4 -5 -4 -6 16 -52 45 -103 48 -83 51 -94 41 -121 -6 -16 -9 -34 -5 -40 3 -6 1 -7 -5 -3 -6 3 -16 -2 -21 -13 -14 -26 -14 -34 1 -25 7 4 8 3 4 -5 -4 -6 -11 -9 -16 -6 -4 3 -22 -20 -39 -50 -34 -59 -37 -70 -19 -59 7 4 8 3 4 -5 -4 -6 -11 -9 -16 -6 -4 3 -22 -20 -39 -50 -34 -60 -37 -70 -18 -59 8 5 8 2 -2 -9 -12 -15 -37 -17 -225 -15 l-211 2 215 6 215 6 -205 2 -206 2 -98 171 c-87 153 -97 175 -87 196 14 30 14 36 -1 27 -7 -4 -8 -3 -4 5 4 6 11 9 16 6 5 -3 16 8 25 24 18 36 19 45 3 35 -7 -4 -8 -3 -4 5 4 6 11 9 16 6 12 -8 43 53 34 67 -4 7 -3 8 4 4 6 -3 16 2 21 13 14 26 14 34 -1 25 -7 -4 -8 -3 -4 5 4 6 11 9 16 6 12 -8 43 53 34 67 -4 7 -3 8 4 4 6 -3 16 2 22 14 10 18 22 20 193 23 l182 3 -192 -1 c-105 0 -189 3 -186 8 2 4 100 7 216 7 141 0 207 -4 197 -10z m2465 0 l-220 -6 211 -2 c182 -2 213 -4 218 -18 3 -8 10 -13 15 -9 5 3 13 0 17 -6 4 -8 3 -9 -4 -5 -16 10 -15 1 3 -35 9 -16 20 -27 25 -24 5 3 12 0 16 -6 4 -8 3 -9 -4 -5 -16 10 -15 1 3 -35 9 -16 20 -27 25 -24 5 3 12 0 16 -6 4 -8 3 -9 -4 -5 -16 10 -15 1 3 -35 9 -16 20 -27 25 -24 5 3 12 0 16 -6 4 -8 3 -9 -4 -5 -16 10 -15 1 3 -35 9 -16 20 -27 25 -24 5 3 12 0 16 -6 5 -8 3 -9 -6 -4 -10 6 -12 4 -7 -9 4 -10 7 -24 7 -32 0 -9 5 -12 12 -8 7 4 8 3 4 -5 -4 -6 -11 -9 -16 -6 -5 3 -14 -3 -19 -14 -14 -26 -14 -34 1 -25 7 4 8 3 4 -5 -4 -6 -11 -9 -16 -6 -5 3 -16 -8 -25 -24 -18 -36 -19 -45 -3 -35 7 4 8 3 4 -5 -4 -6 -11 -9 -16 -6 -5 3 -14 -3 -19 -14 -14 -26 -14 -34 1 -25 7 4 8 3 4 -5 -4 -6 -11 -9 -16 -6 -5 3 -16 -8 -25 -24 -18 -36 -19 -45 -3 -35 7 4 8 3 4 -5 -4 -6 -11 -9 -16 -6 -11 7 -43 -52 -35 -65 3 -5 -82 -8 -211 -7 l-216 2 -100 173 -99 173 25 44 c29 48 32 60 14 49 -7 -4 -8 -3 -4 5 4 6 11 9 16 6 4 -3 22 20 39 50 34 59 37 70 19 59 -7 -4 -8 -3 -4 5 4 6 11 9 16 6 4 -3 22 20 39 50 34 60 37 70 19 59 -9 -5 -9 -2 1 9 12 15 37 17 230 15 l216 -2 -220 -6z m-3706 -175 c51 -91 97 -163 101 -160 5 3 12 0 16 -6 4 -8 3 -9 -4 -5 -8 4 -12 0 -12 -11 0 -10 -9 -31 -20 -48 -22 -34 -26 -50 -8 -39 7 4 8 3 4 -5 -4 -6 -11 -9 -16 -6 -4 3 -22 -20 -39 -50 -34 -59 -37 -70 -19 -59 7 4 8 3 4 -5 -4 -6 -11 -9 -16 -6 -4 3 -22 -20 -39 -50 -34 -59 -37 -70 -19 -59 7 4 8 3 4 -5 -4 -6 -11 -9 -16 -6 -5 3 -11 1 -15 -5 -4 -6 -81 -10 -205 -10 l-199 0 -16 30 c-9 17 -20 28 -25 25 -5 -3 -12 0 -16 6 -4 8 -3 9 4 5 16 -10 15 -1 -3 35 -9 16 -20 27 -25 24 -5 -3 -12 0 -16 6 -4 8 -3 9 4 5 16 -10 15 -1 -3 35 -9 16 -20 27 -25 24 -5 -3 -12 0 -16 6 -4 8 -3 9 4 5 15 -9 15 -1 1 25 -5 11 -15 16 -21 13 -7 -4 -8 -3 -4 4 9 15 -22 75 -34 67 -6 -4 -7 1 -3 11 4 11 3 15 -5 10 -6 -3 -14 -2 -17 4 -4 6 -1 9 6 8 6 -2 14 3 17 11 3 9 0 11 -8 6 -9 -5 -11 -4 -6 4 4 6 11 9 16 6 5 -3 14 3 19 14 14 26 14 34 -1 25 -7 -4 -8 -3 -4 5 4 6 11 9 16 6 5 -3 16 8 25 24 18 36 19 45 3 35 -7 -4 -8 -3 -4 5 4 6 11 9 16 6 5 -3 14 3 19 14 14 26 14 34 -1 25 -7 -4 -8 -3 -4 5 4 6 11 9 16 6 5 -3 16 8 25 24 18 36 19 45 3 35 -7 -4 -8 -3 -4 5 4 6 11 9 16 6 12 -8 43 53 34 67 -4 6 -3 8 4 4 6 -3 13 -2 17 4 4 6 80 10 203 10 l197 0 94 -165z m2646 30 c43 -74 81 -133 85 -130 5 3 12 0 16 -6 4 -8 3 -9 -4 -5 -16 10 -15 1 3 -35 9 -16 20 -27 25 -24 5 3 12 0 16 -6 4 -8 3 -9 -4 -5 -7 4 -12 3 -12 -3 0 -5 -3 -17 -7 -27 -5 -13 -3 -15 7 -9 9 5 11 4 6 -4 -4 -6 -11 -9 -16 -6 -4 3 -22 -20 -39 -50 -34 -59 -37 -70 -19 -59 7 4 8 3 4 -5 -4 -6 -11 -9 -16 -6 -5 3 -16 -8 -25 -24 -18 -36 -19 -45 -3 -35 7 4 8 3 4 -5 -4 -6 -11 -9 -16 -6 -5 3 -14 -3 -19 -14 -14 -26 -14 -34 1 -25 7 4 8 3 4 -5 -4 -6 -12 -9 -17 -6 -5 4 -16 -10 -26 -29 l-17 -36 -202 0 c-127 0 -205 4 -209 10 -4 6 -10 8 -15 5 -5 -3 -14 5 -20 17 -11 22 -10 22 4 4 33 -41 14 0 -60 130 -42 74 -80 132 -84 129 -5 -3 -12 0 -16 6 -5 8 -3 9 6 4 10 -6 11 -4 6 11 -5 10 -11 27 -13 36 -3 10 -10 15 -16 11 -6 -3 -7 -1 -3 6 4 6 11 9 16 6 5 -3 14 3 19 14 14 26 14 34 -1 25 -7 -4 -8 -3 -4 5 4 6 11 9 16 6 4 -3 22 20 39 50 34 59 37 70 19 59 -7 -4 -8 -3 -4 5 4 6 11 9 16 6 5 -3 16 8 25 24 18 36 19 45 3 35 -7 -4 -8 -3 -4 5 4 6 11 9 16 6 5 -3 14 3 19 14 14 26 14 34 -1 25 -7 -4 -8 -3 -4 5 4 6 11 9 16 6 5 -3 14 4 20 15 10 19 20 20 210 20 l199 0 76 -135z m2613 109 c7 -14 16 -23 21 -19 5 3 13 0 17 -6 4 -8 3 -9 -4 -5 -16 10 -15 1 3 -35 9 -16 20 -27 25 -24 5 3 12 0 16 -6 4 -8 3 -9 -4 -5 -15 9 -15 1 -1 -25 5 -11 15 -16 21 -13 7 4 8 3 4 -4 -10 -16 22 -74 36 -66 7 4 8 3 4 -4 -9 -15 22 -75 34 -67 6 4 7 -1 3 -11 -4 -11 -3 -15 5 -10 6 3 14 1 18 -5 4 -8 3 -9 -4 -5 -8 5 -12 -1 -12 -14 0 -13 4 -19 12 -14 7 4 8 3 4 -5 -4 -6 -11 -9 -16 -6 -12 8 -43 -53 -34 -67 4 -7 3 -8 -4 -4 -6 3 -16 -2 -21 -13 -14 -26 -14 -34 1 -25 7 4 8 3 4 -5 -4 -6 -11 -9 -16 -6 -4 3 -22 -20 -39 -50 -34 -59 -37 -70 -19 -59 7 4 8 3 4 -5 -4 -6 -11 -9 -16 -6 -5 3 -16 -8 -25 -24 -19 -38 -19 -50 1 -25 14 18 15 18 4 -4 -6 -12 -15 -20 -20 -17 -5 3 -11 1 -15 -5 -4 -6 -81 -10 -205 -10 -190 0 -200 1 -210 20 -6 11 -15 18 -20 15 -5 -3 -12 0 -16 6 -4 8 -3 9 4 5 16 -10 15 -1 -3 35 -9 16 -20 27 -25 24 -5 -3 -12 0 -16 6 -4 8 -3 9 4 5 16 -10 15 -1 -3 35 -9 16 -20 27 -25 24 -5 -3 -12 0 -16 6 -4 8 -3 9 4 5 15 -9 15 -1 1 25 -5 11 -15 16 -21 13 -7 -4 -8 -3 -4 4 8 13 -21 75 -32 68 -8 -5 -12 15 -14 66 0 16 -5 25 -11 21 -6 -3 -7 -1 -3 6 4 6 11 9 16 6 12 -8 43 53 34 67 -4 7 -3 8 4 4 6 -3 16 2 21 13 14 26 14 34 -1 25 -7 -4 -8 -3 -4 5 4 6 11 9 16 6 4 -3 22 20 39 50 34 59 37 70 19 59 -7 -4 -8 -3 -4 5 4 6 12 9 17 6 5 -4 16 10 26 29 l17 36 206 0 207 0 11 -26z m1340 0 c7 -14 16 -23 21 -19 5 3 13 0 17 -6 4 -8 3 -9 -4 -5 -16 10 -15 1 3 -35 9 -16 20 -27 25 -24 5 3 12 0 16 -6 4 -8 3 -9 -4 -5 -16 10 -15 1 3 -35 9 -16 20 -27 25 -24 5 3 12 0 16 -6 4 -8 3 -9 -4 -5 -16 10 -15 1 3 -35 9 -16 20 -27 25 -24 5 3 12 0 16 -6 4 -8 3 -9 -4 -5 -16 10 -15 1 3 -35 9 -16 20 -27 25 -24 5 3 12 0 16 -6 5 -8 3 -9 -6 -4 -8 5 -11 3 -8 -6 3 -8 11 -13 17 -11 7 1 10 -2 6 -8 -3 -6 -10 -8 -15 -5 -4 3 -20 -15 -34 -39 -29 -49 -32 -61 -14 -50 7 4 8 3 4 -5 -4 -6 -11 -9 -16 -6 -5 3 -16 -8 -25 -24 -18 -36 -19 -45 -3 -35 7 4 8 3 4 -5 -4 -6 -11 -9 -16 -6 -12 8 -43 -53 -34 -67 4 -7 3 -8 -4 -4 -6 3 -16 -2 -21 -13 -14 -26 -14 -34 1 -25 7 4 8 3 4 -5 -4 -6 -12 -9 -17 -6 -5 4 -14 -5 -21 -19 l-11 -26 -207 0 -207 0 -11 26 c-7 14 -16 23 -21 19 -5 -3 -13 0 -17 6 -4 8 -3 9 4 5 16 -10 15 -1 -3 35 -9 16 -20 27 -25 24 -5 -3 -12 0 -16 6 -4 8 -3 9 4 5 16 -10 15 -1 -3 35 -9 16 -20 27 -25 24 -5 -3 -12 0 -16 6 -4 8 -3 9 4 5 16 -10 15 -1 -3 35 -9 16 -20 27 -25 24 -5 -3 -12 0 -16 6 -4 8 -3 9 4 5 16 -10 15 -1 -3 35 -9 16 -20 27 -25 24 -5 -3 -12 0 -16 6 -5 8 -3 9 6 4 10 -6 12 -1 8 18 -3 15 -1 24 3 21 4 -2 13 4 18 15 14 26 14 34 -1 25 -7 -4 -8 -3 -4 5 4 6 11 9 16 6 4 -3 22 20 39 50 34 59 37 70 19 59 -7 -4 -8 -3 -4 5 4 6 11 9 16 6 4 -3 22 20 39 50 34 59 37 70 19 59 -7 -4 -8 -3 -4 5 4 6 11 9 16 6 5 -3 14 4 20 15 10 19 20 20 214 20 l203 0 11 -26z m-7344 -360 c5 -14 4 -15 -8 -5 -11 9 -16 9 -22 0 -4 -7 -3 -9 3 -6 6 4 15 -5 22 -19 6 -14 15 -23 20 -19 5 3 13 0 17 -6 4 -8 3 -9 -4 -5 -16 10 -15 1 3 -35 9 -16 20 -27 25 -24 5 3 12 0 16 -6 4 -8 3 -9 -4 -5 -16 10 -15 1 3 -35 9 -16 20 -27 25 -24 5 3 12 0 16 -6 4 -8 3 -9 -4 -5 -16 10 -15 1 3 -35 9 -16 20 -27 25 -24 5 3 12 0 16 -6 4 -8 3 -9 -4 -5 -16 10 -15 1 3 -35 9 -16 20 -27 25 -24 5 3 12 0 16 -6 4 -7 3 -9 -3 -6 -6 4 -10 -4 -10 -18 -1 -14 4 -22 10 -18 6 3 7 1 3 -6 -4 -6 -11 -9 -16 -6 -5 3 -16 -8 -25 -24 -18 -36 -19 -45 -3 -35 7 4 8 3 4 -5 -4 -6 -11 -9 -16 -6 -12 8 -43 -53 -34 -67 4 -7 3 -8 -4 -4 -6 3 -16 -2 -21 -13 -14 -26 -14 -34 1 -25 7 4 8 3 4 -5 -4 -6 -11 -9 -16 -6 -12 8 -43 -53 -34 -67 4 -7 3 -8 -4 -4 -6 3 -16 -2 -21 -13 -14 -26 -14 -34 1 -25 6 4 8 3 4 -4 -4 -7 -79 -11 -220 -12 l-214 -1 -77 136 c-43 74 -81 133 -85 130 -5 -3 -12 0 -16 6 -4 8 -3 9 4 5 16 -10 15 -1 -3 35 -9 16 -20 27 -25 24 -5 -3 -12 0 -16 6 -4 8 -3 9 4 5 6 -3 16 2 21 13 14 26 14 34 -1 25 -7 -4 -8 -3 -4 5 4 6 11 9 16 6 5 -3 14 3 19 14 14 26 14 34 -1 25 -7 -4 -8 -3 -4 5 4 6 11 9 16 6 5 -3 16 8 25 24 18 36 19 45 3 35 -7 -4 -8 -3 -4 5 4 6 11 9 16 6 12 -8 43 53 34 67 -4 7 -3 8 4 4 6 -3 16 2 21 13 14 26 14 34 -1 25 -7 -4 -8 -3 -4 5 4 6 12 9 17 6 5 -4 16 10 26 29 l17 36 180 2 181 3 -180 2 c-176 3 -180 3 -198 -19 -10 -13 -15 -16 -11 -8 19 40 22 40 234 40 184 0 209 -2 214 -16z m1321 -14 c4 -6 10 -8 15 -5 5 3 12 0 16 -6 4 -8 3 -9 -4 -5 -16 10 -15 1 3 -35 9 -16 20 -27 25 -24 5 3 12 0 16 -6 4 -8 3 -9 -4 -5 -15 9 -15 1 -1 -25 5 -11 15 -16 21 -13 7 4 8 3 4 -4 -10 -16 22 -74 36 -66 7 4 8 3 4 -4 -10 -16 22 -74 36 -66 7 4 8 3 4 -4 -4 -6 0 -25 9 -42 9 -18 13 -40 9 -52 -4 -15 -3 -18 6 -13 9 5 11 4 6 -4 -4 -6 -11 -9 -16 -6 -5 3 -16 -8 -25 -24 -18 -36 -19 -45 -3 -35 7 4 8 3 4 -5 -4 -6 -11 -9 -16 -6 -5 3 -14 -3 -19 -14 -14 -26 -14 -34 1 -25 7 4 8 3 4 -5 -4 -6 -11 -9 -16 -6 -5 3 -16 -8 -25 -24 -18 -36 -19 -45 -3 -35 7 4 8 3 4 -5 -4 -6 -11 -9 -16 -6 -12 8 -43 -53 -34 -67 4 -7 3 -8 -4 -4 -7 4 -17 -3 -24 -18 l-11 -26 -203 0 c-127 0 -205 4 -209 10 -4 6 -10 8 -15 5 -5 -3 -14 5 -20 17 -11 22 -10 22 4 4 34 -43 12 4 -74 154 -49 87 -90 163 -90 169 0 7 -5 9 -12 5 -7 -4 -8 -3 -4 5 4 6 11 9 16 6 12 -8 43 53 34 67 -4 7 -3 8 4 4 6 -3 16 2 21 13 14 26 14 34 -1 25 -7 -4 -8 -3 -4 5 4 6 11 9 16 6 4 -3 22 20 39 50 34 59 37 70 19 59 -7 -4 -8 -3 -4 5 4 6 11 9 16 6 5 -3 16 8 25 24 19 38 19 50 -1 25 -14 -18 -15 -18 -4 4 6 12 15 20 20 17 5 -3 11 -1 15 5 4 6 81 10 205 10 124 0 201 -4 205 -10z m1339 -6 c3 -8 10 -13 15 -9 5 3 13 0 17 -6 4 -8 3 -9 -4 -5 -16 10 -15 1 3 -35 9 -16 20 -27 25 -24 5 3 12 0 16 -6 4 -8 3 -9 -4 -5 -16 10 -15 1 3 -35 9 -16 20 -27 25 -24 5 3 12 0 16 -6 4 -8 3 -9 -4 -5 -15 9 -15 1 -1 -25 5 -11 15 -16 21 -13 7 4 8 3 4 -4 -10 -16 22 -74 36 -66 6 4 8 3 5 -3 -8 -13 18 -85 28 -76 4 5 5 2 1 -5 -4 -7 -11 -10 -16 -7 -12 8 -43 -53 -34 -67 4 -7 3 -8 -4 -4 -6 3 -16 -2 -21 -13 -14 -26 -14 -34 1 -25 7 4 8 3 4 -5 -4 -6 -11 -9 -16 -6 -4 3 -22 -20 -39 -50 -34 -59 -37 -70 -19 -59 7 4 8 3 4 -5 -4 -6 -11 -9 -16 -6 -5 3 -16 -8 -25 -24 -19 -38 -19 -50 1 -25 14 18 15 18 4 -4 -6 -12 -15 -20 -20 -17 -5 3 -11 1 -15 -5 -4 -6 -80 -10 -203 -10 l-197 0 -74 130 c-40 71 -77 128 -81 125 -5 -3 -12 0 -16 6 -4 8 -3 9 4 5 16 -10 15 -1 -3 35 -9 16 -20 27 -25 24 -5 -3 -12 0 -16 6 -4 8 -3 9 4 5 8 -5 12 1 12 14 0 13 -4 19 -12 14 -7 -4 -8 -3 -4 5 4 6 11 9 16 6 5 -3 16 8 25 24 18 36 19 45 3 35 -7 -4 -8 -3 -4 5 4 6 11 9 16 6 5 -3 14 3 19 14 14 26 14 34 -1 25 -7 -4 -8 -3 -4 5 4 6 11 9 16 6 5 -3 16 8 25 24 18 36 19 45 3 35 -7 -4 -8 -3 -4 5 4 6 11 9 16 6 12 -8 43 53 34 67 -4 7 -3 8 4 4 6 -3 16 2 21 13 14 26 14 34 -1 25 -7 -4 -8 -3 -4 5 4 6 11 9 16 6 5 -3 11 -1 15 5 4 6 81 10 205 10 170 0 199 -2 204 -16z m1330 0 c3 -8 10 -13 15 -9 5 3 13 0 17 -6 4 -8 3 -9 -4 -5 -15 9 -15 1 -1 -25 5 -11 15 -16 21 -13 7 4 8 3 4 -4 -10 -16 22 -74 36 -66 7 4 8 3 4 -4 -10 -16 22 -74 36 -66 7 4 8 3 4 -4 -8 -13 21 -75 32 -68 8 5 12 -16 14 -71 1 -18 6 -29 11 -26 6 3 7 1 3 -6 -4 -6 -11 -9 -16 -6 -5 3 -16 -8 -25 -24 -18 -36 -19 -45 -3 -35 7 4 8 3 4 -5 -4 -6 -11 -9 -16 -6 -12 8 -43 -53 -34 -67 4 -7 3 -8 -4 -4 -6 3 -16 -2 -21 -13 -14 -26 -14 -34 1 -25 7 4 8 3 4 -5 -4 -6 -11 -9 -16 -6 -12 8 -43 -53 -34 -67 4 -7 3 -8 -4 -4 -7 4 -17 -3 -24 -18 l-11 -26 -202 0 -201 0 -17 36 c-10 19 -21 33 -26 29 -5 -3 -13 0 -17 6 -4 8 -3 9 4 5 16 -10 15 -1 -3 35 -9 16 -20 27 -25 24 -5 -3 -12 0 -16 6 -4 8 -3 9 4 5 16 -10 15 -1 -3 35 -9 16 -20 27 -25 24 -5 -3 -12 0 -16 6 -4 8 -3 9 4 5 16 -10 15 -1 -3 35 -9 16 -20 27 -25 24 -5 -3 -12 0 -16 6 -4 8 -3 9 4 5 16 -10 15 -1 -3 34 -14 27 -14 33 0 60 18 35 19 44 3 34 -7 -4 -8 -3 -4 5 4 6 11 9 16 6 12 -8 43 53 34 67 -4 7 -3 8 4 4 6 -3 16 2 21 13 14 26 14 34 -1 25 -7 -4 -8 -3 -4 5 4 6 11 9 16 6 12 -8 43 53 34 67 -4 7 -3 8 4 4 6 -3 16 2 21 13 14 26 14 34 -1 25 -7 -4 -8 -3 -4 5 4 6 11 9 16 6 5 -3 14 4 20 15 10 19 20 20 209 20 171 0 200 -2 205 -16z m1430 -155 c76 -134 96 -177 91 -196 -4 -18 -2 -23 6 -17 8 4 9 3 5 -5 -4 -6 -11 -9 -16 -6 -4 3 -22 -20 -39 -50 -34 -59 -37 -70 -19 -59 7 4 8 3 4 -5 -4 -6 -11 -9 -16 -6 -4 3 -22 -20 -39 -50 -34 -59 -37 -70 -19 -59 7 4 8 3 4 -5 -4 -6 -12 -9 -17 -6 -5 4 -16 -10 -26 -30 l-17 -35 -204 2 -205 3 -68 120 c-38 66 -73 120 -78 120 -5 0 -13 4 -18 9 -5 5 -3 6 5 2 16 -9 15 -1 -3 35 -9 16 -20 27 -25 24 -5 -3 -12 0 -16 6 -5 8 -3 9 6 4 10 -6 12 -4 7 9 -4 10 -7 22 -7 27 0 6 -5 7 -12 3 -7 -4 -8 -3 -4 5 4 6 11 9 16 6 4 -3 22 20 39 50 34 59 37 70 19 59 -7 -4 -8 -3 -4 5 4 6 11 9 16 6 5 -3 16 8 25 24 18 36 19 45 3 35 -7 -4 -8 -3 -4 5 4 6 11 9 16 6 5 -3 14 3 19 14 14 26 14 34 -1 25 -7 -4 -8 -3 -4 5 4 6 11 9 16 6 5 -3 16 8 25 24 18 36 19 45 3 35 -7 -4 -8 -3 -4 5 4 6 11 9 16 6 5 -3 11 -1 15 5 4 6 82 10 208 10 l203 0 98 -171z m1259 135 c10 -19 21 -33 26 -29 5 3 13 0 17 -6 4 -8 3 -9 -4 -5 -16 10 -15 1 3 -35 9 -16 20 -27 25 -24 5 3 12 0 16 -6 4 -8 3 -9 -4 -5 -16 10 -15 1 3 -35 9 -16 20 -27 25 -24 5 3 12 0 16 -6 4 -8 3 -9 -4 -5 -16 10 -15 1 3 -35 9 -16 20 -27 25 -24 5 3 12 0 16 -6 4 -8 3 -9 -4 -5 -16 10 -15 3 4 -38 16 -33 16 -36 -5 -69 -24 -38 -27 -52 -9 -41 7 4 8 3 4 -5 -4 -6 -11 -9 -16 -6 -4 3 -22 -20 -39 -50 -34 -59 -37 -70 -19 -59 7 4 8 3 4 -5 -4 -6 -11 -9 -16 -6 -5 3 -16 -8 -25 -24 -18 -36 -19 -45 -3 -35 7 4 8 3 4 -5 -4 -6 -11 -9 -16 -6 -5 3 -14 -3 -19 -14 -14 -26 -14 -34 1 -25 7 4 8 3 4 -5 -4 -6 -11 -9 -16 -6 -5 3 -11 1 -15 -5 -10 -16 -397 -13 -414 3 -11 10 -13 9 -9 -3 4 -13 37 -15 221 -15 119 0 213 -3 208 -8 -4 -4 -101 -6 -215 -5 l-209 3 -16 25 c-9 14 -11 21 -3 16 6 -4 12 -5 12 -2 0 4 -41 79 -92 167 l-92 162 22 38 c25 43 27 53 10 43 -7 -4 -8 -3 -4 5 4 6 11 9 16 6 4 -3 22 20 39 50 34 59 37 70 19 59 -7 -4 -8 -3 -4 5 4 6 11 9 16 6 5 -3 16 8 25 24 18 36 19 45 3 35 -7 -4 -8 -3 -4 5 4 6 11 9 16 6 5 -3 14 3 19 14 14 26 14 34 -1 25 -7 -4 -8 -3 -4 5 4 6 11 9 16 6 5 -3 11 -1 15 5 4 6 82 10 209 10 l202 0 17 -36z m-6004 -364 c9 -14 11 -21 4 -16 -19 11 -16 1 18 -59 17 -30 35 -53 39 -50 5 3 12 0 16 -6 4 -8 3 -9 -4 -5 -16 10 -15 1 3 -35 9 -16 20 -27 25 -24 5 3 12 0 16 -6 4 -8 3 -9 -4 -5 -16 10 -15 1 3 -35 9 -16 20 -27 25 -24 5 3 12 0 16 -6 4 -8 3 -9 -4 -5 -16 10 -15 3 4 -37 15 -31 15 -36 0 -65 -19 -37 -20 -46 -4 -36 7 4 8 3 4 -5 -4 -6 -11 -9 -16 -6 -12 8 -43 -53 -34 -67 4 -7 3 -8 -4 -4 -6 3 -16 -2 -21 -13 -14 -26 -14 -34 1 -25 7 4 8 3 4 -5 -4 -6 -11 -9 -16 -6 -4 3 -22 -20 -39 -50 -34 -59 -37 -70 -19 -59 7 4 8 3 4 -5 -4 -6 -12 -9 -17 -6 -5 4 -12 -1 -15 -9 -5 -14 -34 -16 -210 -16 -194 0 -204 1 -214 20 -6 11 -15 18 -20 15 -5 -3 -12 0 -16 6 -4 8 -3 9 4 5 16 -10 15 -1 -3 35 -9 16 -20 27 -25 24 -5 -3 -12 0 -16 6 -4 8 -3 9 4 5 16 -10 15 -1 -3 35 -9 16 -20 27 -25 24 -5 -3 -12 0 -16 6 -4 8 -3 9 4 5 16 -10 15 -1 -3 35 -9 16 -20 27 -25 24 -5 -3 -12 0 -16 6 -4 8 -3 9 4 5 16 -10 15 -1 -3 35 -9 16 -20 27 -25 24 -5 -3 -12 0 -16 6 -4 8 -3 9 4 5 14 -8 15 -5 6 19 -6 13 -9 14 -16 3 -8 -10 -9 -10 -5 2 2 8 9 15 16 15 7 0 19 11 26 25 18 31 19 43 3 34 -7 -4 -8 -3 -4 5 4 6 11 9 16 6 5 -3 14 3 19 14 14 26 14 34 -1 25 -7 -4 -8 -3 -4 5 4 6 11 9 16 6 5 -3 16 8 25 24 18 36 19 45 3 35 -7 -4 -8 -3 -4 5 4 6 11 9 16 6 12 -8 43 53 34 67 -4 7 -3 8 4 4 6 -3 16 2 21 13 14 26 14 34 -1 25 -7 -4 -8 -3 -4 5 4 6 12 9 17 6 5 -4 12 1 15 9 5 14 34 16 203 16 144 0 201 -3 210 -12 11 -11 13 -10 9 2 -4 12 -40 16 -219 20 l-214 6 214 -1 214 0 16 -25z m1318 15 c6 -2 17 -14 23 -27 l11 -23 -18 23 c-18 22 -21 22 -218 19 l-200 -2 200 -3 200 -2 99 -175 98 -175 -31 -55 c-34 -59 -37 -70 -19 -59 7 4 8 3 4 -5 -4 -6 -11 -9 -16 -6 -4 3 -22 -20 -39 -50 -34 -59 -37 -70 -19 -59 7 4 8 3 4 -5 -4 -6 -11 -9 -16 -6 -5 3 -16 -8 -25 -24 -18 -36 -19 -45 -3 -35 7 4 8 3 4 -5 -4 -6 -12 -9 -17 -6 -5 4 -12 -1 -15 -9 -5 -14 -35 -16 -213 -16 l-207 0 -17 36 c-10 19 -21 33 -26 29 -5 -3 -13 0 -17 6 -4 8 -3 9 4 5 15 -9 15 -1 1 25 -5 11 -15 16 -21 13 -7 -4 -8 -3 -4 4 10 16 -22 74 -36 66 -7 -4 -8 -3 -4 4 10 16 -22 74 -36 66 -7 -4 -8 -3 -4 4 9 15 -22 74 -35 66 -5 -3 -3 11 5 31 19 45 19 48 4 39 -7 -4 -8 -3 -4 5 4 6 11 9 16 6 4 -3 22 20 39 50 34 59 37 70 19 59 -7 -4 -8 -3 -4 5 4 6 11 9 16 6 4 -3 22 20 39 50 34 59 37 70 19 59 -7 -4 -8 -3 -4 5 4 6 11 9 16 6 5 -3 16 8 25 24 18 36 19 45 3 35 -6 -4 -8 -3 -5 3 6 9 394 7 424 -2z m-2662 -35 c9 -17 20 -28 25 -25 5 3 12 0 16 -6 4 -8 3 -9 -4 -5 -16 10 -15 1 3 -35 9 -16 20 -27 25 -24 5 3 12 0 16 -6 4 -8 3 -9 -4 -5 -15 9 -15 1 -1 -25 5 -11 15 -16 21 -13 7 4 8 3 4 -4 -10 -16 22 -74 36 -66 7 4 8 3 4 -4 -10 -16 22 -74 36 -66 7 4 8 3 4 -4 -4 -7 -2 -20 4 -29 10 -16 11 -16 5 2 -5 15 -3 17 6 8 12 -12 3 -37 -11 -28 -4 3 -22 -20 -39 -50 -34 -59 -37 -70 -19 -59 7 4 8 3 4 -5 -4 -6 -11 -9 -16 -6 -5 3 -16 -8 -25 -24 -18 -36 -19 -45 -3 -35 7 4 8 3 4 -5 -4 -6 -11 -9 -16 -6 -5 3 -14 -3 -19 -14 -14 -26 -14 -34 1 -25 7 4 8 3 4 -5 -4 -6 -11 -9 -16 -6 -5 3 -16 -8 -25 -24 -18 -36 -19 -45 -3 -35 7 4 8 3 4 -5 -4 -6 -11 -9 -16 -6 -5 3 -13 -2 -17 -10 -8 -13 -38 -15 -212 -13 l-204 3 -88 155 c-49 85 -93 155 -98 155 -5 0 -13 4 -18 9 -4 5 -3 6 3 3 8 -4 12 1 11 16 0 12 4 31 8 41 6 15 5 17 -5 11 -9 -5 -11 -4 -6 4 4 6 11 9 16 6 4 -3 22 20 39 50 34 59 37 70 19 59 -7 -4 -8 -3 -4 5 4 6 11 9 16 6 4 -3 22 20 39 50 34 59 37 70 19 59 -7 -4 -8 -3 -4 5 4 6 11 9 16 6 5 -3 16 8 25 25 l16 30 204 0 204 0 16 -30z m4003 4 c7 -14 16 -23 21 -19 5 3 13 0 17 -6 4 -8 3 -9 -4 -5 -16 10 -15 1 3 -35 9 -16 20 -27 25 -24 5 3 12 0 16 -6 4 -8 3 -9 -4 -5 -16 10 -15 1 3 -35 9 -16 20 -27 25 -24 5 3 12 0 16 -6 4 -8 3 -9 -4 -5 -16 10 -15 1 3 -35 9 -16 20 -27 25 -24 5 3 12 0 16 -6 4 -8 3 -9 -4 -5 -16 10 -15 1 3 -35 9 -16 20 -27 25 -24 5 3 12 0 16 -6 4 -8 3 -9 -4 -5 -8 4 -12 0 -12 -11 0 -10 -9 -31 -20 -48 -22 -34 -26 -50 -8 -39 7 4 8 3 4 -5 -4 -6 -11 -9 -16 -6 -5 3 -16 -8 -25 -24 -18 -36 -19 -45 -3 -35 7 4 8 3 4 -5 -4 -6 -11 -9 -16 -6 -5 3 -14 -3 -19 -14 -14 -26 -14 -34 1 -25 7 4 8 3 4 -5 -4 -6 -11 -9 -16 -6 -5 3 -16 -8 -25 -24 -18 -36 -19 -45 -3 -35 7 4 8 3 4 -5 -4 -6 -11 -9 -16 -6 -5 3 -14 -3 -19 -14 -14 -26 -14 -34 1 -25 7 4 8 3 4 -5 -4 -6 -12 -9 -17 -5 -6 3 -9 -2 -7 -12 3 -18 -8 -19 -212 -19 l-215 -1 215 6 215 6 -206 2 c-177 2 -208 4 -213 18 -3 8 -10 13 -15 9 -5 -3 -13 0 -17 6 -4 8 -3 9 4 5 16 -10 15 -1 -3 35 -9 16 -20 27 -25 24 -5 -3 -12 0 -16 6 -4 8 -3 9 4 5 16 -10 15 -1 -3 35 -9 16 -20 27 -25 24 -5 -3 -12 0 -16 6 -4 8 -3 9 4 5 16 -10 15 -1 -3 35 -9 16 -20 27 -25 24 -5 -3 -12 0 -16 6 -4 8 -3 9 4 5 16 -10 15 -1 -3 35 -9 16 -20 27 -25 24 -5 -3 -12 0 -16 6 -4 8 -3 9 4 5 15 -9 15 -1 1 25 -8 15 -6 27 10 53 24 38 27 51 9 40 -7 -4 -8 -3 -4 5 4 6 11 9 16 6 4 -3 22 20 39 50 34 59 37 70 19 59 -7 -4 -8 -3 -4 5 4 6 11 9 16 6 4 -3 22 20 39 50 34 59 37 70 19 59 -7 -4 -8 -3 -4 5 4 6 11 9 16 6 5 -3 11 -1 15 5 4 6 82 10 209 10 l203 0 11 -26z m1348 14 c4 -7 2 -8 -4 -4 -16 10 -15 1 3 -35 9 -16 20 -27 25 -24 5 3 12 0 16 -6 4 -8 3 -9 -4 -5 -16 10 -15 1 3 -35 9 -16 20 -27 25 -24 5 3 12 0 16 -6 4 -8 3 -9 -4 -5 -16 10 -15 1 3 -35 9 -16 20 -27 25 -24 5 3 12 0 16 -6 4 -8 3 -9 -4 -5 -15 9 -15 1 -1 -25 5 -11 15 -16 21 -13 7 4 8 3 4 -4 -9 -14 22 -75 34 -67 5 3 12 1 15 -5 4 -6 1 -9 -6 -8 -6 2 -14 -3 -17 -11 -3 -9 0 -11 8 -6 9 5 11 4 6 -4 -4 -6 -11 -9 -16 -6 -12 8 -43 -53 -34 -67 4 -7 3 -8 -4 -4 -6 3 -16 -2 -21 -13 -14 -26 -14 -34 1 -25 7 4 8 3 4 -5 -4 -6 -11 -9 -16 -6 -4 3 -22 -20 -39 -50 -34 -59 -37 -70 -19 -59 7 4 8 3 4 -5 -4 -6 -11 -9 -16 -6 -5 3 -16 -8 -25 -24 -19 -38 -19 -50 1 -25 14 18 15 18 4 -3 -6 -13 -14 -22 -18 -21 -4 1 -14 -2 -22 -5 -8 -4 -76 -8 -150 -10 l-135 -3 152 0 c83 1 149 -2 146 -6 -6 -11 -411 -10 -417 0 -2 4 12 9 32 10 49 4 54 12 9 13 -50 2 -54 3 -64 13 -5 5 -3 6 5 2 16 -9 15 -1 -3 35 -9 16 -20 27 -25 24 -5 -3 -12 0 -16 6 -4 8 -3 9 4 5 15 -9 15 -1 1 25 -5 11 -15 16 -21 13 -7 -4 -8 -3 -4 4 10 16 -22 74 -36 66 -7 -4 -8 -3 -4 4 10 16 -22 74 -36 66 -7 -4 -8 -3 -4 4 4 6 0 25 -9 42 -9 18 -13 40 -9 52 4 15 3 18 -6 13 -9 -5 -11 -4 -6 4 4 6 11 9 16 6 5 -3 14 3 19 14 14 26 14 34 -1 25 -7 -4 -8 -3 -4 5 4 6 11 9 16 6 5 -3 16 8 25 24 18 36 19 45 3 35 -7 -4 -8 -3 -4 5 4 6 11 9 16 6 12 -8 43 53 34 67 -4 7 -3 8 4 4 6 -3 16 2 21 13 14 26 14 34 -1 25 -7 -4 -8 -3 -4 5 4 6 12 9 17 6 5 -4 17 10 26 30 l17 36 213 -1 c141 -1 215 -5 219 -12z m1322 -14 c7 -15 17 -22 24 -18 7 4 8 3 4 -4 -10 -16 22 -74 36 -66 7 4 8 3 4 -4 -10 -16 22 -74 36 -66 7 4 8 3 4 -4 -9 -14 62 -144 74 -137 5 3 14 -3 20 -14 7 -14 7 -22 -2 -27 -6 -4 -8 -3 -5 2 3 6 2 16 -4 24 -7 12 -9 11 -9 -5 0 -11 -11 -38 -25 -60 -27 -44 -31 -60 -13 -49 7 4 8 3 4 -5 -4 -6 -11 -9 -16 -6 -5 3 -16 -8 -25 -24 -18 -36 -19 -45 -3 -35 7 4 8 3 4 -5 -4 -6 -11 -9 -16 -6 -12 8 -43 -53 -34 -67 4 -7 3 -8 -4 -4 -6 3 -16 -2 -21 -13 -14 -26 -14 -34 1 -25 7 4 8 3 4 -5 -4 -6 -12 -9 -17 -6 -5 4 -14 -5 -21 -19 l-11 -26 -203 0 c-127 0 -205 4 -209 10 -4 6 -10 8 -15 5 -5 -3 -12 0 -16 6 -4 8 -3 9 4 5 16 -10 15 -1 -3 35 -9 16 -20 27 -25 24 -5 -3 -12 0 -16 6 -4 8 -3 9 4 5 16 -10 15 -1 -3 35 -9 16 -20 27 -25 24 -5 -3 -12 0 -16 6 -4 8 -3 9 4 5 16 -10 15 -1 -3 35 -9 16 -20 27 -25 24 -5 -3 -12 0 -16 6 -4 8 -3 9 4 5 16 -10 15 -1 -3 35 -9 16 -20 27 -25 24 -5 -3 -12 0 -16 6 -4 8 -3 9 4 5 15 -9 15 -6 -4 39 -8 20 -11 34 -5 31 5 -4 15 2 20 13 14 26 14 34 -1 25 -7 -4 -8 -3 -4 5 4 6 11 9 16 6 12 -8 43 53 34 67 -4 7 -3 8 4 4 6 -3 16 2 21 13 14 26 14 34 -1 25 -7 -4 -8 -3 -4 5 4 6 11 9 16 6 4 -3 22 20 39 50 34 59 37 70 19 59 -7 -4 -8 -3 -4 5 4 6 11 9 16 6 5 -3 14 4 20 15 10 19 20 20 214 20 l203 0 11 -26z m-4667 -361 c10 -11 10 -14 2 -9 -7 4 -13 5 -13 2 0 -16 184 -325 190 -321 5 3 12 0 16 -7 4 -7 3 -10 -1 -5 -10 9 -36 -63 -28 -76 3 -6 1 -7 -5 -3 -6 3 -16 -2 -21 -13 -14 -26 -14 -34 1 -25 7 4 8 3 4 -5 -4 -6 -11 -9 -16 -6 -4 3 -22 -20 -39 -50 -34 -59 -37 -70 -19 -59 7 4 8 3 4 -5 -4 -6 -11 -9 -16 -6 -5 3 -23 -22 -42 -55 l-33 -60 -202 0 -202 0 -16 30 c-9 17 -20 28 -25 25 -5 -3 -12 0 -16 6 -4 8 -3 9 4 5 16 -10 15 -1 -3 35 -9 16 -20 27 -25 24 -5 -3 -12 0 -16 6 -4 8 -3 9 4 5 16 -10 15 -1 -3 35 -9 16 -20 27 -25 24 -5 -3 -12 0 -16 6 -4 8 -3 9 4 5 15 -9 15 -1 1 25 -5 11 -15 16 -21 13 -7 -4 -8 -3 -4 4 8 14 -21 75 -33 68 -16 -10 -4 52 17 86 24 39 28 53 10 42 -7 -4 -8 -3 -4 5 4 6 11 9 16 6 4 -3 22 20 39 50 34 59 37 70 19 59 -7 -4 -8 -3 -4 5 4 6 11 9 16 6 5 -3 16 8 25 24 18 36 19 45 3 35 -7 -4 -8 -3 -4 5 4 6 11 9 16 6 5 -3 14 3 19 14 14 26 14 34 -1 25 -8 -4 -10 -3 -5 2 11 12 -2 11 235 15 l207 3 -215 6 -215 6 211 2 c188 2 213 0 225 -15z m1160 10 l154 -8 -165 -5 -165 -6 167 -2 c100 -1 169 -6 173 -12 4 -6 11 -7 17 -4 7 4 8 2 4 -4 -10 -16 22 -74 36 -66 7 4 8 3 4 -4 -10 -16 22 -74 36 -66 7 4 8 3 4 -4 -10 -16 22 -74 36 -66 7 4 8 3 4 -5 -10 -15 52 -123 66 -115 7 4 8 2 4 -5 -4 -6 -11 -9 -16 -6 -5 3 -14 -3 -19 -14 -14 -26 -14 -34 1 -25 7 4 8 3 4 -5 -4 -6 -11 -9 -16 -6 -5 3 -16 -8 -25 -24 -18 -36 -19 -45 -3 -35 7 4 8 3 4 -5 -4 -6 -11 -9 -16 -6 -12 8 -43 -53 -34 -67 4 -7 3 -8 -4 -4 -6 3 -16 -2 -21 -13 -14 -26 -14 -34 1 -25 7 4 8 3 4 -5 -4 -6 -11 -9 -16 -6 -5 3 -21 -17 -36 -45 l-27 -50 -202 0 -201 0 -88 155 c-49 85 -92 153 -96 150 -5 -3 -12 0 -16 6 -4 7 -3 9 3 6 6 -4 11 5 11 21 2 51 6 71 14 66 4 -3 12 4 17 15 14 26 14 34 -1 25 -7 -4 -8 -3 -4 5 4 6 11 9 16 6 12 -8 43 53 34 67 -4 7 -3 8 4 4 6 -3 16 2 21 13 14 26 14 34 -1 25 -7 -4 -8 -3 -4 5 4 6 11 9 16 6 4 -3 22 20 39 50 34 60 37 70 19 59 -8 -4 -10 -3 -5 2 5 5 13 10 18 10 22 3 23 5 9 14 -19 12 32 13 241 3z m-2485 -25 c4 -7 3 -8 -4 -4 -16 10 -15 1 3 -35 9 -16 20 -27 25 -24 5 3 12 0 16 -6 4 -8 3 -9 -4 -5 -16 10 -15 1 3 -35 9 -16 20 -27 25 -24 5 3 12 0 16 -6 4 -8 3 -9 -4 -5 -16 10 -15 1 3 -35 9 -16 20 -27 25 -24 5 3 12 0 16 -6 4 -8 3 -9 -4 -5 -16 10 -15 1 3 -35 9 -16 20 -27 25 -24 5 3 12 0 16 -6 4 -8 3 -9 -4 -5 -16 9 -15 -3 2 -33 8 -14 11 -32 8 -40 -4 -10 -1 -12 8 -6 9 5 11 4 6 -4 -4 -6 -11 -9 -16 -6 -12 8 -43 -53 -34 -67 4 -7 3 -8 -4 -4 -6 3 -16 -2 -21 -13 -14 -26 -14 -34 1 -25 7 4 8 3 4 -5 -4 -6 -11 -9 -16 -6 -4 3 -22 -20 -39 -50 -34 -59 -37 -70 -19 -59 7 4 8 3 4 -5 -4 -6 -11 -9 -16 -6 -5 3 -18 -12 -30 -35 l-20 -40 -205 0 c-127 0 -206 4 -210 10 -4 6 -10 8 -15 5 -5 -3 -12 0 -16 6 -4 8 -3 9 4 5 16 -10 15 -1 -3 35 -9 16 -20 27 -25 24 -5 -3 -12 0 -16 6 -4 8 -3 9 4 5 16 -10 15 -1 -3 35 -9 16 -20 27 -25 24 -5 -3 -12 0 -16 6 -4 8 -3 9 4 5 16 -10 15 -1 -3 35 -9 16 -20 27 -25 24 -5 -3 -12 0 -16 6 -4 8 -3 9 4 5 16 -10 15 -1 -3 35 -9 16 -20 27 -25 24 -5 -3 -12 0 -16 6 -5 8 -3 9 6 4 10 -6 11 -4 5 11 -4 10 -7 27 -6 37 3 45 6 55 13 51 4 -3 12 4 17 15 14 26 14 34 -1 25 -7 -4 -8 -3 -4 5 4 6 11 9 16 6 12 -8 43 53 34 67 -4 7 -3 8 4 4 6 -3 16 2 21 13 14 26 14 34 -1 25 -7 -4 -8 -3 -4 5 4 6 11 9 16 6 4 -3 22 20 39 50 34 59 37 70 19 59 -7 -4 -8 -3 -4 4 9 16 453 16 462 0z m4049 -123 c43 -74 81 -133 85 -130 5 3 12 0 16 -6 4 -8 3 -9 -4 -5 -16 10 -15 1 3 -35 9 -16 20 -27 25 -24 5 3 12 0 16 -6 4 -7 3 -9 -3 -6 -6 4 -13 -1 -16 -11 -2 -9 -8 -26 -13 -36 -5 -15 -4 -17 6 -11 9 5 11 4 6 -4 -4 -6 -11 -9 -16 -6 -4 3 -22 -20 -39 -50 -34 -59 -37 -70 -19 -59 7 4 8 3 4 -5 -4 -6 -11 -9 -16 -6 -5 3 -16 -8 -25 -24 -18 -36 -19 -45 -3 -35 7 4 8 3 4 -5 -4 -6 -11 -9 -16 -6 -5 3 -14 -3 -19 -14 -14 -26 -14 -34 1 -25 7 4 8 3 4 -5 -4 -6 -12 -9 -17 -6 -5 4 -14 -5 -21 -19 l-11 -26 -203 0 c-127 0 -205 4 -209 10 -4 6 -10 8 -15 5 -5 -3 -14 5 -20 17 -11 22 -10 22 4 4 33 -41 14 0 -60 130 -42 74 -80 132 -84 129 -5 -3 -12 0 -16 6 -4 8 -3 9 4 5 15 -9 15 -1 1 25 -8 16 -4 31 20 74 34 59 37 70 19 59 -7 -4 -8 -3 -4 5 4 6 11 9 16 6 4 -3 22 20 39 50 34 59 37 70 19 59 -7 -4 -8 -3 -4 5 4 6 11 9 16 6 5 -3 16 8 25 24 18 36 19 45 3 35 -7 -4 -8 -3 -4 5 4 6 11 9 16 6 5 -3 14 4 20 15 10 19 20 20 210 20 l199 0 76 -135z m1309 50 c26 -47 52 -83 56 -80 5 3 12 0 16 -6 4 -8 3 -9 -4 -5 -16 10 -15 1 3 -35 9 -16 20 -27 25 -24 5 3 12 0 16 -6 4 -8 3 -9 -4 -5 -16 10 -15 1 3 -35 9 -16 20 -27 25 -24 5 3 12 0 16 -6 4 -8 3 -9 -5 -5 -8 6 -10 1 -5 -18 4 -17 -1 -36 -15 -59 -24 -38 -27 -52 -9 -41 7 4 8 3 4 -5 -4 -6 -11 -9 -16 -6 -4 3 -22 -20 -39 -50 -34 -59 -37 -70 -19 -59 7 4 8 3 4 -5 -4 -6 -11 -9 -16 -6 -5 3 -16 -8 -25 -24 -18 -36 -19 -45 -3 -35 7 4 8 3 4 -5 -4 -6 -11 -9 -16 -6 -5 3 -14 -3 -19 -14 -14 -26 -14 -34 2 -25 7 4 9 3 4 -2 -5 -5 -12 -9 -15 -10 -4 0 -14 -4 -22 -7 -8 -4 -53 -8 -100 -10 -74 -3 -72 -3 17 -3 56 1 98 -3 94 -7 -8 -8 -373 -4 -403 4 -10 3 -21 9 -25 14 -4 4 -2 5 5 1 6 -4 12 -5 12 -1 0 3 -45 84 -100 181 l-101 175 21 33 c23 38 26 51 8 40 -7 -4 -8 -3 -4 5 4 6 11 9 16 6 4 -3 22 20 39 50 34 59 37 70 19 59 -7 -4 -8 -3 -4 5 4 6 11 9 16 6 5 -3 16 8 25 24 18 36 19 45 3 35 -7 -4 -8 -3 -4 5 4 6 11 9 16 6 5 -3 14 3 19 14 14 26 14 34 -1 25 -7 -4 -8 -3 -4 5 4 6 11 9 16 6 5 -3 11 -1 15 5 4 6 82 10 209 10 l202 0 48 -85z m-4724 -295 c0 -5 -15 -11 -32 -11 -32 -2 -32 -2 -5 -6 16 -3 34 1 42 7 10 8 15 8 21 -1 4 -8 3 -9 -4 -5 -15 9 -15 1 -1 -25 5 -11 14 -17 19 -14 5 3 12 0 16 -6 4 -8 3 -9 -4 -5 -16 10 -15 1 3 -35 9 -16 20 -27 25 -24 5 3 12 0 16 -6 4 -8 3 -9 -4 -5 -16 10 -15 1 3 -35 9 -16 20 -27 25 -24 5 3 12 0 16 -6 4 -8 3 -9 -4 -5 -16 10 -15 1 3 -35 9 -16 20 -27 25 -24 5 3 12 0 16 -6 4 -8 3 -9 -4 -5 -15 9 -15 1 -1 -25 5 -11 13 -18 17 -15 4 2 9 -4 10 -15 1 -10 2 -25 3 -31 1 -7 -2 -22 -7 -32 -5 -15 -4 -17 6 -11 9 5 11 4 6 -4 -4 -6 -11 -9 -16 -6 -5 3 -16 -8 -25 -24 -18 -36 -19 -45 -3 -35 7 4 8 3 4 -5 -4 -6 -11 -9 -16 -6 -5 3 -14 -3 -19 -14 -14 -26 -14 -34 1 -25 7 4 8 3 4 -5 -4 -6 -11 -9 -16 -6 -5 3 -16 -8 -25 -24 -18 -36 -19 -45 -3 -35 7 4 8 3 4 -5 -4 -6 -11 -9 -16 -6 -12 8 -43 -53 -34 -67 4 -7 3 -8 -4 -4 -6 3 -16 -3 -22 -14 -10 -19 -20 -20 -215 -20 l-204 0 -96 170 c-54 93 -102 168 -109 167 -6 -1 -11 5 -11 13 0 8 5 14 12 13 6 -1 25 22 42 52 34 59 37 70 19 59 -7 -4 -8 -3 -4 5 4 6 11 9 16 6 4 -3 22 20 39 50 34 59 37 70 19 59 -7 -4 -8 -3 -4 5 4 6 11 9 16 6 5 -3 21 17 36 45 l27 50 151 2 151 2 -160 6 -160 6 208 2 c133 1 207 -2 207 -8z m1345 -20 c4 -6 10 -8 15 -5 5 3 12 0 16 -6 4 -8 3 -9 -4 -5 -15 9 -15 1 -1 -25 5 -11 15 -16 21 -13 7 4 8 3 4 -4 -10 -16 22 -74 36 -66 7 4 8 3 4 -4 -10 -16 22 -74 36 -66 7 4 8 3 4 -4 -10 -16 22 -74 36 -66 6 4 8 3 5 -3 -9 -14 27 -95 38 -85 5 4 5 1 1 -6 -4 -7 -11 -10 -16 -7 -5 3 -14 -3 -19 -14 -14 -26 -14 -34 1 -25 7 4 8 3 4 -5 -4 -6 -11 -9 -16 -6 -4 3 -22 -20 -39 -50 -34 -59 -37 -70 -19 -59 7 4 8 3 4 -5 -4 -6 -11 -9 -16 -6 -5 3 -16 -8 -25 -24 -18 -36 -19 -45 -3 -35 7 4 8 3 4 -5 -4 -6 -11 -9 -16 -6 -5 3 -14 -3 -19 -14 -14 -26 -14 -34 1 -25 7 4 8 3 4 -5 -4 -6 -11 -9 -16 -6 -5 3 -14 -4 -20 -15 -10 -19 -20 -20 -210 -20 -124 0 -201 4 -205 10 -4 6 -10 8 -15 5 -5 -3 -14 5 -20 17 -11 22 -10 22 4 4 34 -43 12 4 -75 155 l-91 159 31 55 c34 59 37 70 19 59 -7 -4 -8 -3 -4 5 4 6 11 9 16 6 4 -3 22 20 39 50 34 59 37 70 19 59 -7 -4 -8 -3 -4 5 4 6 11 9 16 6 5 -3 16 8 25 24 18 36 19 45 3 35 -7 -4 -8 -3 -4 5 4 6 11 9 16 6 5 -3 14 4 20 15 10 19 20 20 210 20 124 0 201 -4 205 -10z m1339 -6 c3 -8 10 -13 15 -9 5 3 13 0 17 -6 4 -8 3 -9 -4 -5 -16 10 -15 1 3 -35 9 -16 20 -27 25 -24 5 3 12 0 16 -6 4 -8 3 -9 -4 -5 -16 10 -15 1 3 -35 9 -16 20 -27 25 -24 5 3 12 0 16 -6 4 -8 3 -9 -4 -5 -16 10 -15 1 3 -35 9 -16 20 -27 25 -24 5 3 12 0 16 -6 4 -8 3 -9 -4 -5 -15 9 -15 1 -1 -25 5 -11 13 -18 17 -15 8 5 12 -16 14 -71 1 -18 6 -29 11 -26 6 3 7 1 3 -6 -4 -6 -11 -9 -16 -6 -12 8 -43 -53 -34 -67 4 -7 3 -8 -4 -4 -6 3 -16 -2 -21 -13 -14 -26 -14 -34 1 -25 7 4 8 3 4 -5 -4 -6 -11 -9 -16 -6 -4 3 -22 -20 -39 -50 -34 -59 -37 -70 -19 -59 7 4 8 3 4 -5 -4 -6 -12 -9 -17 -6 -5 4 -16 -10 -26 -29 l-17 -36 -202 0 -202 0 -97 171 -98 171 17 35 c19 40 20 47 4 37 -7 -4 -8 -3 -4 5 4 6 11 9 16 6 5 -3 14 3 19 14 14 26 14 34 -1 25 -7 -4 -8 -3 -4 5 4 6 11 9 16 6 5 -3 16 8 25 24 18 36 19 45 3 35 -7 -4 -8 -3 -4 5 4 6 11 9 16 6 12 -8 43 53 34 67 -4 7 -3 8 4 4 6 -3 16 2 21 13 14 26 14 34 -1 25 -7 -4 -8 -3 -4 5 4 6 11 9 16 6 5 -3 14 4 20 15 10 19 20 20 209 20 171 0 200 -2 205 -16z m1330 0 c3 -8 10 -13 15 -9 5 3 13 0 17 -6 4 -8 3 -9 -4 -5 -15 9 -15 1 -1 -25 5 -11 15 -16 21 -13 7 4 8 3 4 -4 -10 -16 22 -74 36 -66 7 4 8 3 4 -4 -10 -16 22 -74 36 -66 7 4 8 3 4 -4 -10 -16 22 -74 36 -66 7 4 8 3 4 -4 -4 -6 0 -25 9 -42 15 -29 15 -33 -4 -64 -24 -38 -27 -51 -9 -40 7 4 8 3 4 -5 -4 -6 -11 -9 -16 -6 -5 3 -16 -8 -25 -24 -18 -36 -19 -45 -3 -35 7 4 8 3 4 -5 -4 -6 -11 -9 -16 -6 -5 3 -14 -3 -19 -14 -14 -26 -14 -34 1 -25 7 4 8 3 4 -5 -4 -6 -11 -9 -16 -6 -5 3 -16 -8 -25 -24 -18 -36 -19 -45 -3 -35 7 4 8 3 4 -5 -4 -6 -11 -9 -16 -6 -5 3 -14 -3 -19 -14 -14 -26 -14 -34 1 -25 7 4 8 3 4 -5 -4 -6 -12 -9 -17 -5 -6 3 -9 -2 -7 -12 3 -18 -9 -19 -217 -19 l-220 -1 220 6 220 6 -211 2 -210 2 -17 36 c-10 19 -21 33 -26 29 -5 -3 -13 0 -17 6 -4 8 -3 9 4 5 16 -10 15 -1 -3 35 -9 16 -20 27 -25 24 -5 -3 -12 0 -16 6 -4 8 -3 9 4 5 16 -10 15 -1 -3 35 -9 16 -20 27 -25 24 -5 -3 -12 0 -16 6 -4 8 -3 9 4 5 16 -10 15 -1 -3 35 -9 16 -20 27 -25 24 -5 -3 -12 0 -16 6 -4 8 -3 9 4 5 16 -10 15 -1 -3 35 -12 21 -13 34 -5 48 13 26 13 34 -2 25 -7 -4 -8 -3 -4 5 4 6 11 9 16 6 12 -8 43 53 34 67 -4 7 -3 8 4 4 6 -3 16 2 21 13 14 26 14 34 -1 25 -7 -4 -8 -3 -4 5 4 6 11 9 16 6 4 -3 22 20 39 50 34 59 37 70 19 59 -7 -4 -8 -3 -4 5 4 6 11 9 16 6 5 -3 16 8 25 25 l16 30 198 0 c171 0 200 -2 205 -16z m-3316 -384 l14 -25 -22 25 c-32 36 -24 20 64 -133 43 -75 82 -135 86 -132 5 3 12 0 16 -6 4 -8 3 -9 -4 -5 -16 10 -15 1 3 -35 12 -21 13 -34 5 -48 -13 -26 -13 -34 2 -25 7 4 8 3 4 -5 -4 -6 -11 -9 -16 -6 -4 3 -22 -20 -39 -50 -34 -59 -37 -70 -19 -59 7 4 8 3 4 -5 -4 -6 -11 -9 -16 -6 -4 3 -22 -20 -39 -50 -34 -59 -37 -70 -19 -59 7 4 8 3 4 -5 -4 -6 -11 -9 -16 -6 -5 3 -16 -8 -25 -25 l-16 -30 -199 0 c-190 0 -200 1 -210 20 -6 11 -15 18 -20 15 -5 -3 -12 0 -16 6 -4 8 -3 9 4 5 16 -10 15 -1 -3 35 -9 16 -20 27 -25 24 -5 -3 -12 0 -16 6 -4 8 -3 9 4 5 16 -10 15 -1 -3 35 -9 16 -20 27 -25 24 -5 -3 -12 0 -16 6 -4 8 -3 9 4 5 16 -10 15 -1 -3 35 -9 16 -20 27 -25 24 -5 -3 -12 0 -16 6 -4 8 -3 9 4 5 16 -10 15 -1 -3 35 -9 16 -20 27 -25 24 -5 -3 -12 0 -16 6 -5 8 -3 9 6 4 9 -6 12 -4 8 6 -3 8 0 26 8 40 17 30 18 42 2 33 -7 -4 -8 -3 -4 5 4 6 11 9 16 6 5 -3 14 3 19 14 14 26 14 34 -1 25 -7 -4 -8 -3 -4 5 4 6 11 9 16 6 5 -3 16 8 25 24 18 36 19 45 3 35 -7 -4 -8 -3 -4 5 4 6 11 9 16 6 12 -8 43 53 34 67 -4 7 -3 8 4 4 6 -3 16 2 21 13 14 26 14 34 -1 25 -7 -4 -8 -3 -4 5 4 6 12 9 17 6 5 -4 14 5 21 19 l11 26 191 2 191 2 -200 6 -200 6 214 -1 214 0 15 -25z m-1343 -20 c9 -17 20 -28 25 -25 5 3 12 0 16 -6 4 -8 3 -9 -4 -5 -16 10 -15 1 3 -35 9 -16 20 -27 25 -24 5 3 12 0 16 -6 4 -8 3 -9 -4 -5 -16 10 -15 1 3 -35 9 -16 20 -27 25 -24 5 3 12 0 16 -6 4 -8 3 -9 -4 -5 -15 9 -15 1 -1 -25 5 -11 15 -16 21 -13 7 4 8 3 4 -4 -8 -14 21 -75 33 -68 4 3 7 -10 5 -29 -1 -23 1 -33 8 -29 7 4 8 2 4 -5 -4 -6 -11 -9 -16 -6 -4 3 -22 -20 -39 -50 -34 -59 -37 -70 -19 -59 7 4 8 3 4 -5 -4 -6 -11 -9 -16 -6 -4 3 -22 -20 -39 -50 -34 -59 -37 -70 -19 -59 7 4 8 3 4 -5 -4 -6 -11 -9 -16 -6 -5 3 -16 -8 -25 -24 -18 -36 -19 -45 -3 -35 6 4 8 3 4 -4 -4 -7 -74 -10 -222 -9 l-216 2 -99 170 c-64 111 -96 176 -92 189 4 13 1 16 -7 11 -9 -5 -11 -4 -6 4 4 6 11 9 16 6 5 -3 16 8 25 24 18 36 19 45 3 35 -7 -4 -8 -3 -4 5 4 6 11 9 16 6 5 -3 14 3 19 14 14 26 14 34 -1 25 -7 -4 -8 -3 -4 5 4 6 11 9 16 6 5 -3 16 8 25 24 18 36 19 45 3 35 -7 -4 -8 -3 -4 5 4 6 11 9 16 6 5 -3 14 3 19 14 14 26 14 34 -1 25 -7 -4 -8 -3 -4 5 4 6 11 9 16 6 5 -3 16 8 25 24 18 36 19 45 3 35 -6 -4 -8 -3 -4 4 4 7 79 11 221 12 l214 1 16 -31z m2686 7 c10 -22 10 -22 -7 -2 -30 36 -9 -6 85 -171 l90 -158 -24 -42 c-28 -47 -31 -59 -13 -48 7 4 8 3 4 -5 -4 -6 -11 -9 -16 -6 -5 3 -16 -8 -25 -24 -18 -36 -19 -45 -3 -35 7 4 8 3 4 -5 -4 -6 -11 -9 -16 -6 -5 3 -14 -3 -19 -14 -14 -26 -14 -34 1 -25 7 4 8 3 4 -5 -4 -6 -11 -9 -16 -6 -5 3 -16 -8 -25 -24 -18 -36 -19 -45 -3 -35 7 4 8 3 4 -5 -4 -6 -11 -9 -16 -6 -5 3 -14 -3 -19 -14 -14 -26 -14 -34 1 -25 6 4 8 3 4 -4 -4 -7 -79 -11 -220 -12 -187 -1 -214 1 -220 15 -3 9 -10 14 -15 10 -5 -3 -13 0 -17 6 -4 8 -3 9 4 5 16 -10 15 -1 -3 35 -9 16 -20 27 -25 24 -5 -3 -12 0 -16 6 -4 8 -3 9 4 5 16 -10 15 -1 -3 35 -9 16 -20 27 -25 24 -5 -3 -12 0 -16 6 -4 8 -3 9 4 5 16 -10 15 -1 -3 35 -9 16 -20 27 -25 24 -5 -3 -12 0 -16 6 -4 8 -3 9 4 5 15 -9 15 -1 1 25 -5 11 -15 16 -21 13 -6 -4 -8 -3 -5 3 8 13 -18 85 -28 76 -4 -5 -5 -2 -1 5 4 7 12 9 18 6 8 -5 9 -1 5 10 -4 10 -3 15 3 11 5 -3 14 3 19 14 14 26 14 34 -1 25 -7 -4 -8 -3 -4 5 4 6 11 9 16 6 4 -3 22 20 39 50 34 59 37 70 19 59 -7 -4 -8 -3 -4 5 4 6 11 9 16 6 4 -3 22 20 39 50 34 59 37 70 19 59 -7 -4 -8 -3 -4 5 4 6 11 9 16 6 5 -3 12 -1 15 5 4 7 79 10 216 10 204 -1 209 -2 220 -23z m1357 -72 c30 -52 58 -93 62 -90 5 3 12 0 16 -6 4 -8 3 -9 -4 -5 -16 10 -15 1 3 -35 9 -16 20 -27 25 -24 5 3 12 0 16 -6 4 -8 3 -9 -4 -5 -16 10 -15 1 3 -35 9 -16 20 -27 25 -24 5 3 12 0 16 -6 5 -8 3 -9 -6 -4 -10 6 -12 1 -8 -18 3 -15 1 -24 -3 -21 -4 2 -13 -4 -18 -15 -14 -26 -14 -34 1 -25 7 4 8 3 4 -5 -4 -6 -11 -9 -16 -6 -4 3 -22 -20 -39 -50 -34 -59 -37 -70 -19 -59 7 4 8 3 4 -5 -4 -6 -11 -9 -16 -6 -4 3 -22 -20 -39 -50 -34 -59 -37 -70 -19 -59 7 4 8 3 4 -5 -4 -6 -11 -9 -16 -6 -5 3 -14 -4 -20 -15 -10 -19 -20 -20 -210 -20 l-199 0 -16 30 c-9 17 -20 28 -25 25 -5 -3 -12 0 -16 6 -4 8 -3 9 4 5 16 -10 15 -1 -3 35 -9 16 -20 27 -25 24 -5 -3 -12 0 -16 6 -4 8 -3 9 4 5 16 -10 15 -1 -3 35 -9 16 -20 27 -25 24 -5 -3 -12 0 -16 6 -4 8 -3 9 4 5 16 -10 15 -1 -3 35 -9 16 -20 27 -25 24 -5 -3 -12 0 -16 6 -4 8 -3 9 4 5 16 -10 15 -1 -3 35 -9 16 -20 27 -25 24 -5 -3 -12 0 -16 6 -4 8 -3 9 4 5 7 -4 12 -1 12 9 0 10 -5 13 -12 9 -7 -4 -8 -3 -4 5 4 6 11 9 16 6 5 -3 14 3 19 14 14 26 14 34 -1 25 -7 -4 -8 -3 -4 5 4 6 11 9 16 6 4 -3 22 20 39 50 34 59 37 70 19 59 -7 -4 -8 -3 -4 5 4 6 11 9 16 6 5 -3 16 8 25 24 18 36 19 45 3 35 -7 -4 -8 -3 -4 5 4 6 11 9 16 6 5 -3 14 3 19 14 14 26 14 34 -1 25 -7 -4 -8 -3 -4 5 4 6 11 9 16 6 5 -3 14 4 20 15 10 19 20 20 213 20 l202 0 53 -95z m1300 69 c7 -15 17 -22 24 -18 7 4 8 3 4 -4 -9 -14 142 -284 154 -277 5 3 12 0 16 -7 4 -7 4 -10 -1 -6 -5 5 -17 -11 -27 -33 -21 -48 -22 -53 -6 -43 7 4 8 3 4 -5 -4 -6 -11 -9 -16 -6 -5 3 -14 -3 -19 -14 -14 -26 -14 -34 1 -25 7 4 8 3 4 -5 -4 -6 -11 -9 -16 -6 -5 3 -16 -8 -25 -24 -18 -36 -19 -45 -3 -35 7 4 8 3 4 -5 -4 -6 -11 -9 -16 -6 -12 8 -43 -53 -34 -67 4 -7 3 -8 -4 -4 -6 3 -16 -2 -21 -13 -14 -26 -14 -34 1 -25 7 4 8 3 4 -5 -4 -6 -11 -9 -16 -6 -5 3 -14 -4 -20 -15 -10 -19 -20 -20 -214 -20 -176 0 -205 2 -210 16 -3 8 -11 12 -17 8 -8 -4 -9 -3 -5 4 10 16 -22 74 -36 66 -7 -4 -8 -3 -4 5 4 6 -21 61 -58 126 -36 63 -66 121 -66 130 0 10 -5 13 -12 9 -7 -4 -8 -3 -4 5 4 6 11 9 16 6 5 -3 14 3 19 14 14 26 14 34 -1 25 -7 -4 -8 -3 -4 5 4 6 11 9 16 6 5 -3 16 8 25 24 18 36 19 45 3 35 -7 -4 -8 -3 -4 5 4 6 11 9 16 6 12 -8 43 53 34 67 -4 7 -3 8 4 4 6 -3 16 2 21 13 14 26 14 34 -1 25 -7 -4 -8 -3 -4 5 4 6 11 9 16 6 5 -3 16 8 25 24 19 38 19 50 -1 25 -14 -18 -15 -18 -4 4 6 12 15 20 20 17 5 -3 11 -1 15 5 4 6 82 10 209 10 l203 0 11 -26z m-676 -368 c-2 -10 1 -15 7 -12 5 4 13 1 17 -5 4 -8 3 -9 -4 -5 -15 9 -15 1 -1 -25 5 -11 15 -16 21 -13 7 4 8 3 4 -4 -10 -16 22 -74 36 -66 7 4 8 3 4 -4 -10 -16 22 -74 36 -66 7 4 8 3 4 -4 -10 -16 22 -74 36 -66 7 4 8 3 4 -4 -4 -6 0 -25 9 -42 15 -30 15 -33 -9 -75 -29 -48 -32 -60 -14 -49 7 4 8 3 4 -5 -4 -6 -11 -9 -16 -6 -4 3 -22 -20 -39 -50 -34 -59 -37 -70 -19 -59 7 4 8 3 4 -5 -4 -6 -11 -9 -16 -6 -5 3 -16 -8 -25 -24 -18 -36 -19 -45 -3 -35 7 4 8 3 4 -5 -4 -6 -11 -9 -16 -6 -5 3 -14 -3 -19 -14 -14 -26 -14 -34 1 -25 7 4 8 3 4 -4 -5 -8 -77 -11 -232 -11 -136 0 -222 3 -219 9 9 15 -24 72 -37 64 -7 -4 -8 -3 -4 5 4 6 -24 66 -64 137 -56 98 -71 130 -66 150 5 19 3 24 -5 18 -8 -4 -9 -3 -5 5 4 6 11 9 16 6 4 -3 22 20 39 50 34 59 37 70 19 59 -7 -4 -8 -3 -4 5 4 6 11 9 16 6 4 -3 22 20 39 50 34 59 37 70 19 59 -7 -4 -8 -3 -4 5 4 6 11 9 16 6 5 -3 16 8 25 24 18 36 19 45 3 35 -9 -5 -8 -2 1 9 12 16 36 17 225 15 199 -3 211 -4 208 -22z m-3981 -19 c10 -21 10 -21 -5 -3 -20 25 -20 13 -1 -25 9 -16 20 -27 25 -24 5 3 12 0 16 -6 4 -8 3 -9 -4 -5 -16 10 -15 1 3 -35 9 -16 20 -27 25 -24 5 3 12 0 16 -6 4 -8 3 -9 -4 -5 -16 10 -15 1 3 -35 9 -16 20 -27 25 -24 5 3 12 0 16 -6 4 -8 3 -9 -4 -5 -16 10 -15 1 3 -35 9 -16 20 -27 25 -24 5 3 12 0 16 -6 4 -8 3 -9 -4 -5 -16 10 -15 1 2 -33 14 -25 13 -31 -9 -67 -27 -43 -31 -59 -13 -48 7 4 8 3 4 -5 -4 -6 -11 -9 -16 -6 -5 3 -16 -8 -25 -24 -18 -36 -19 -45 -3 -35 7 4 8 3 4 -5 -4 -6 -11 -9 -16 -6 -12 8 -43 -53 -34 -67 4 -7 3 -8 -4 -4 -6 3 -16 -2 -21 -13 -14 -26 -14 -34 1 -25 7 4 8 3 4 -5 -4 -6 -11 -9 -16 -6 -5 3 -14 -3 -19 -14 -14 -26 -14 -34 1 -25 6 4 8 3 4 -4 -9 -14 -432 -17 -441 -2 -3 6 -10 8 -15 5 -5 -3 -12 0 -16 6 -4 8 -3 9 4 5 16 -10 15 -1 -3 35 -9 16 -20 27 -25 24 -5 -3 -12 0 -16 6 -4 8 -3 9 4 5 16 -10 15 -1 -3 35 -9 16 -20 27 -25 24 -5 -3 -12 0 -16 6 -4 8 -3 9 4 5 16 -10 15 -1 -3 35 -9 16 -20 27 -25 24 -5 -3 -12 0 -16 6 -4 8 -3 9 4 5 16 -10 15 -1 -3 35 -9 16 -20 27 -25 24 -5 -3 -12 0 -16 6 -5 8 -3 9 6 4 10 -6 11 -4 5 11 -10 26 -13 74 -4 68 4 -2 13 4 18 15 14 26 14 34 -1 25 -7 -4 -8 -3 -4 5 4 6 11 9 16 6 12 -8 43 53 34 67 -4 7 -3 8 4 4 6 -3 16 2 21 13 14 26 14 34 -1 25 -7 -4 -8 -3 -4 5 4 6 11 9 16 6 4 -3 22 20 39 50 34 59 37 70 19 59 -7 -4 -8 -3 -4 5 4 6 12 9 17 6 5 -4 12 1 15 10 6 14 33 16 220 15 210 -1 214 -2 225 -23z m1304 13 c3 -6 10 -8 15 -5 5 3 14 -5 20 -17 11 -22 10 -22 -4 -4 -33 41 -14 0 60 -130 42 -74 80 -132 84 -129 5 3 12 0 16 -6 4 -8 3 -9 -4 -5 -15 9 -15 1 -1 -25 8 -15 6 -27 -10 -53 -24 -38 -27 -51 -9 -40 7 4 8 3 4 -5 -4 -6 -11 -9 -16 -6 -4 3 -22 -20 -39 -50 -34 -59 -37 -70 -19 -59 7 4 8 3 4 -5 -4 -6 -11 -9 -16 -6 -4 3 -22 -20 -39 -50 -34 -59 -37 -70 -19 -59 7 4 8 3 4 -5 -4 -6 -12 -9 -17 -6 -5 4 -12 -1 -15 -10 -6 -14 -33 -16 -220 -15 -141 1 -216 5 -220 12 -4 7 -2 8 4 4 16 -10 15 -1 -3 35 -9 16 -20 27 -25 24 -5 -3 -12 0 -16 6 -4 8 -3 9 4 5 16 -10 15 -1 -3 35 -9 16 -20 27 -25 24 -5 -3 -12 0 -16 6 -4 8 -3 9 4 5 16 -10 15 -1 -3 35 -9 16 -20 27 -25 24 -5 -3 -12 0 -16 6 -4 8 -3 9 4 5 16 -10 15 -1 -3 35 -9 16 -20 27 -25 24 -5 -3 -12 0 -16 6 -4 8 -3 9 4 5 15 -9 15 -3 1 28 -10 20 -8 30 10 59 24 38 27 52 9 41 -7 -4 -8 -3 -4 5 4 6 11 9 16 6 5 -3 16 8 25 24 18 36 19 45 3 35 -7 -4 -8 -3 -4 5 4 6 11 9 16 6 5 -3 14 3 19 14 14 26 14 34 -1 25 -7 -4 -8 -3 -4 5 4 6 11 9 16 6 5 -3 16 8 25 24 18 36 19 45 3 35 -7 -4 -8 -3 -4 5 4 6 11 9 16 6 11 -7 43 52 35 65 -3 5 83 9 204 10 137 0 212 -3 216 -10z m1339 -6 c3 -8 11 -12 17 -8 8 4 9 3 5 -4 -10 -16 22 -74 36 -66 7 4 8 3 4 -4 -10 -16 22 -74 36 -66 7 4 8 3 4 -4 -10 -16 22 -74 36 -66 7 4 8 3 4 -4 -8 -13 21 -75 32 -68 4 2 9 -4 10 -15 1 -10 2 -25 3 -31 1 -7 -2 -22 -7 -32 -5 -15 -4 -17 6 -11 9 5 11 4 6 -4 -4 -6 -11 -9 -16 -6 -5 3 -16 -8 -25 -24 -18 -36 -19 -45 -3 -35 7 4 8 3 4 -5 -4 -6 -11 -9 -16 -6 -12 8 -43 -53 -34 -67 4 -7 3 -8 -4 -4 -6 3 -16 -2 -21 -13 -14 -26 -14 -34 1 -25 7 4 8 3 4 -5 -4 -6 -11 -9 -16 -6 -4 3 -22 -20 -39 -50 l-32 -56 -214 1 c-142 1 -217 5 -221 12 -4 7 -2 8 4 4 7 -4 12 -5 12 -2 0 18 -184 325 -194 323 -6 -1 -11 5 -11 13 0 8 6 15 13 15 13 0 32 23 32 38 0 5 -5 5 -12 1 -7 -4 -8 -3 -4 5 4 6 11 9 16 6 5 -3 16 8 25 24 18 36 19 45 3 35 -7 -4 -8 -3 -4 5 4 6 11 9 16 6 12 -8 43 53 34 67 -4 7 -3 8 4 4 6 -3 16 2 21 13 14 26 14 34 -1 25 -7 -4 -8 -3 -4 5 4 6 11 9 16 6 12 -8 43 53 34 67 -4 7 -3 8 5 4 6 -4 14 0 17 8 5 14 34 16 209 16 175 0 204 -2 209 -16z m2671 6 c4 -6 10 -8 15 -5 5 3 12 0 16 -6 4 -8 3 -9 -4 -5 -16 10 -15 1 3 -35 9 -16 20 -27 25 -24 5 3 12 0 16 -6 4 -8 3 -9 -4 -5 -16 10 -15 1 3 -35 9 -16 20 -27 25 -24 5 3 12 0 16 -6 4 -8 3 -9 -4 -5 -16 10 -15 1 3 -35 9 -16 20 -27 25 -24 5 3 12 0 16 -6 4 -8 3 -9 -4 -5 -16 10 -15 1 3 -35 9 -16 20 -27 25 -24 5 3 12 0 16 -6 5 -8 3 -9 -6 -4 -10 6 -11 4 -6 -11 5 -10 11 -27 13 -36 3 -10 10 -15 16 -11 6 3 7 1 3 -6 -4 -6 -11 -9 -16 -6 -12 8 -43 -53 -34 -67 4 -7 3 -8 -4 -4 -6 3 -16 -2 -21 -13 -14 -26 -14 -34 1 -25 7 4 8 3 4 -5 -4 -6 -11 -9 -16 -6 -4 3 -22 -20 -39 -50 -34 -59 -37 -70 -19 -59 7 4 8 3 4 -5 -4 -6 -11 -9 -16 -6 -5 3 -16 -8 -25 -24 -19 -38 -19 -50 1 -25 14 18 15 18 4 -4 -6 -12 -15 -20 -20 -17 -5 3 -12 1 -15 -5 -9 -15 -432 -12 -441 2 -4 7 -2 8 4 4 16 -10 15 -1 -3 35 -9 16 -20 27 -25 24 -5 -3 -12 0 -16 6 -4 8 -3 9 4 5 16 -10 15 -1 -3 35 -9 16 -20 27 -25 24 -5 -3 -12 0 -16 6 -4 8 -3 9 4 5 16 -10 15 -1 -3 35 -9 16 -20 27 -25 24 -5 -3 -12 0 -16 6 -4 8 -3 9 4 5 16 -10 15 -1 -3 35 -9 16 -20 27 -25 24 -5 -3 -12 0 -16 6 -4 8 -3 9 4 5 15 -9 15 -1 1 25 -5 11 -15 16 -21 13 -6 -4 -4 3 5 17 20 27 22 43 5 33 -7 -4 -8 -3 -4 5 4 6 11 9 16 6 5 -3 16 8 25 24 18 36 19 45 3 35 -7 -4 -8 -3 -4 5 4 6 11 9 16 6 5 -3 14 3 19 14 14 26 14 34 -1 25 -7 -4 -8 -3 -4 5 4 6 11 9 16 6 5 -3 16 8 25 24 18 36 19 45 3 35 -7 -4 -8 -3 -4 5 4 6 11 9 16 6 12 -8 43 53 34 67 -4 7 -3 8 4 4 7 -4 17 3 24 18 l11 26 203 0 c127 0 205 -4 209 -10z m-3335 -400 c6 -11 16 -17 22 -14 7 4 8 3 4 -4 -10 -16 22 -74 36 -66 7 4 8 3 4 -4 -10 -16 22 -74 36 -66 7 4 8 3 4 -4 -10 -16 22 -74 36 -66 7 4 8 3 4 -5 -4 -6 4 -31 18 -56 16 -26 23 -50 19 -61 -5 -13 -3 -15 7 -9 9 5 11 4 6 -4 -4 -6 -11 -9 -16 -6 -4 3 -22 -20 -39 -50 -34 -59 -37 -70 -19 -59 7 4 8 3 4 -5 -4 -6 -11 -9 -16 -6 -5 3 -16 -8 -25 -24 -18 -36 -19 -45 -3 -35 7 4 8 3 4 -5 -4 -6 -11 -9 -16 -6 -12 8 -43 -53 -34 -67 4 -7 3 -8 -4 -4 -6 3 -16 -2 -21 -13 -14 -26 -14 -34 1 -25 6 4 8 3 4 -4 -4 -7 -74 -10 -222 -9 l-216 2 -99 170 c-64 111 -96 176 -92 189 4 13 1 16 -7 11 -9 -5 -11 -4 -6 4 4 6 11 9 16 6 12 -8 43 53 34 67 -4 7 -3 8 4 4 6 -3 16 2 21 13 14 26 14 34 -1 25 -7 -4 -8 -3 -4 5 4 6 11 9 16 6 4 -3 22 20 39 50 34 59 37 70 19 59 -7 -4 -8 -3 -4 5 4 6 11 9 16 6 5 -3 16 8 25 24 19 38 19 50 -1 25 -15 -18 -15 -18 -5 3 11 21 15 22 225 23 207 1 215 0 226 -20z m2670 0 c6 -11 15 -18 20 -15 5 3 12 0 16 -6 4 -8 3 -9 -4 -5 -16 10 -15 1 3 -35 9 -16 20 -27 25 -24 5 3 12 0 16 -6 4 -8 3 -9 -4 -5 -16 10 -15 1 3 -35 9 -16 20 -27 25 -24 5 3 12 0 16 -6 4 -8 3 -9 -4 -5 -16 10 -15 1 3 -35 9 -16 20 -27 25 -24 5 3 12 0 16 -6 4 -8 3 -9 -4 -5 -16 10 -15 1 3 -35 9 -16 20 -27 25 -24 5 3 12 0 16 -6 4 -7 3 -9 -3 -6 -7 4 -11 -2 -10 -16 0 -12 -4 -31 -8 -41 -6 -15 -5 -17 5 -11 9 5 11 4 6 -4 -4 -6 -11 -9 -16 -6 -5 3 -16 -8 -25 -24 -18 -36 -19 -45 -3 -35 7 4 8 3 4 -5 -4 -6 -11 -9 -16 -6 -5 3 -14 -3 -19 -14 -14 -26 -14 -34 1 -25 7 4 8 3 4 -5 -4 -6 -11 -9 -16 -6 -5 3 -16 -8 -25 -24 -18 -36 -19 -45 -3 -35 7 4 8 3 4 -5 -4 -6 -11 -9 -16 -6 -12 8 -43 -53 -34 -67 4 -7 3 -8 -4 -4 -6 3 -16 -3 -22 -14 -10 -19 -20 -20 -215 -20 l-204 0 -36 65 c-20 36 -41 63 -45 60 -5 -3 -12 0 -16 6 -4 8 -3 9 4 5 16 -10 15 -1 -3 35 -9 16 -20 27 -25 24 -5 -3 -12 0 -16 6 -4 8 -3 9 4 5 16 -10 15 -1 -3 35 -9 16 -20 27 -25 24 -5 -3 -12 0 -16 6 -4 8 -3 9 4 5 16 -9 15 3 -3 34 -7 14 -19 25 -27 25 -7 0 -13 7 -13 15 0 8 6 14 12 13 16 -4 46 54 37 69 -4 7 -3 8 4 4 6 -3 16 2 21 13 14 26 14 34 -1 25 -7 -4 -8 -3 -4 5 4 6 11 9 16 6 4 -3 22 20 39 50 34 59 37 70 19 59 -7 -4 -8 -3 -4 5 4 6 11 9 16 6 5 -3 16 8 25 24 19 38 19 50 -1 25 -14 -18 -15 -18 -4 4 6 12 15 20 21 17 5 -4 12 1 15 9 5 14 34 16 210 16 194 0 204 -1 214 -20z"
       id="path4"
       style="fill:#ececec" />
  </g>
</svg>
